<?xml version="1.0" encoding="UTF-8"?>
<svg xmlns="http://www.w3.org/2000/svg" version="1.1" xmlns:xlink="http://www.w3.org/1999/xlink" viewBox="0 0 1366 768">
  <!-- Generator: Adobe Illustrator 29.6.0, SVG Export Plug-In . SVG Version: 2.1.1 Build 207)  -->
  <defs>
    <style>
      .st0 {
        fill: #170e5a;
      }

      .st1 {
        fill: #ad47a1;
      }

      .st2 {
        fill: #ea56a4;
      }

      .st3 {
        fill: #334f8c;
      }

      .st4 {
        fill: url(#Degradado_sin_nombre_64);
      }

      .st4, .st5, .st6, .st7, .st8, .st9 {
        stroke: #1d1d1b;
        stroke-linecap: round;
        stroke-miterlimit: 10;
      }

      .st10 {
        fill: #193f9d;
      }

      .st11 {
        fill: #313581;
      }

      .st12 {
        fill: #93278f;
      }

      .st13 {
        fill: #8f248f;
      }

      .st14 {
        font-size: 96.53px;
      }

      .st14, .st15, .st16 {
        fill: #ff0;
        font-family: Ravie, Ravie;
      }

      .st17 {
        fill: #fff;
      }

      .st15 {
        font-size: 65.82px;
      }

      .st18 {
        fill: #421271;
      }

      .st19 {
        fill: none;
      }

      .st20 {
        fill: red;
      }

      .st5 {
        fill: url(#Degradado_sin_nombre_61);
      }

      .st6 {
        fill: url(#Degradado_sin_nombre_62);
      }

      .st21 {
        fill: #662d91;
      }

      .st16 {
        font-size: 132.72px;
      }

      .st22 {
        fill: #a01e91;
      }

      .st23 {
        fill: #1b1464;
      }

      .st7 {
        fill: url(#Motivo_generado_6);
        stroke-width: 1.75px;
      }

      .st8 {
        fill: url(#Degradado_sin_nombre_68);
      }

      .st24 {
        fill: #27237a;
      }

      .st25 {
        fill: #c51da2;
      }

      .st26 {
        fill: #a82d95;
      }

      .st9 {
        fill: url(#Degradado_sin_nombre_92);
      }

      .st27 {
        fill: #681382;
      }

      .st28 {
        fill: #4e378a;
      }
    </style>
    <linearGradient id="Degradado_sin_nombre_64" data-name="Degradado sin nombre 64" x1="730.75" y1="146.99" x2="971.5" y2="146.99" gradientTransform="translate(1122.55 -660.32) rotate(86.49)" gradientUnits="userSpaceOnUse">
      <stop offset="0" stop-color="#fff"/>
      <stop offset=".57" stop-color="#090909"/>
      <stop offset="1" stop-color="#000"/>
    </linearGradient>
    <linearGradient id="Degradado_sin_nombre_61" data-name="Degradado sin nombre 61" x1="780.07" y1="66.39" x2="943.47" y2="66.39" gradientTransform="translate(503.61 -488.09) rotate(42.82)" gradientUnits="userSpaceOnUse">
      <stop offset="0" stop-color="#fff"/>
      <stop offset=".4" stop-color="#000"/>
    </linearGradient>
    <linearGradient id="Degradado_sin_nombre_62" data-name="Degradado sin nombre 62" x1="790.39" y1="-19.19" x2="943.49" y2="-19.19" gradientTransform="translate(1198.81 -778.84) rotate(94.33)" gradientUnits="userSpaceOnUse">
      <stop offset="0" stop-color="#fff"/>
      <stop offset=".38" stop-color="#090909"/>
      <stop offset="1" stop-color="#000"/>
    </linearGradient>
    <linearGradient id="Degradado_sin_nombre_68" data-name="Degradado sin nombre 68" x1="794.13" y1="115.24" x2="927.49" y2="115.24" gradientTransform="translate(503.61 -488.09) rotate(42.82)" gradientUnits="userSpaceOnUse">
      <stop offset=".72" stop-color="#fff"/>
      <stop offset="1" stop-color="#000"/>
    </linearGradient>
    <radialGradient id="Degradado_sin_nombre_92" data-name="Degradado sin nombre 92" cx="949.97" cy="542.38" fx="949.97" fy="542.38" r="95.07" gradientUnits="userSpaceOnUse">
      <stop offset=".97" stop-color="#000"/>
      <stop offset=".97" stop-color="#171717"/>
      <stop offset=".98" stop-color="#5d5d5d"/>
      <stop offset=".98" stop-color="#969696"/>
      <stop offset=".99" stop-color="#c3c3c3"/>
      <stop offset=".99" stop-color="#e4e4e4"/>
      <stop offset="1" stop-color="#f7f7f7"/>
      <stop offset="1" stop-color="#fff"/>
    </radialGradient>
    <pattern id="Motivo_generado_6" data-name="Motivo generado 6" x="0" y="0" width="256" height="256" patternUnits="userSpaceOnUse" viewBox="0 0 256 256">
      <g>
        <rect class="st19" width="256" height="256"/>
        <path class="st17" d="M512,240.25v.25c0,1.95.44,14.75,0,15.38l-7,.12c-4.13-6.62-8.51-13.11-12.62-19.75l-24.12,38.12,23.88,37.62c.41.11,1.13-1.05,1.38-1.38,5.93-7.72,13.25-20.5,18.5-29.12v54.25c-14.09.37-28.26-.3-42.38,0l-41.75-62c-14.33,20.1-26.87,41.48-41,61.75h-45.25l-39.62-60.12-1.62-1.62-41,62c-1.12.02-2.25-.03-3.38,0v-54.25c.72-1.19,4.35-6.85,4.25-7.62-3.92-5.85-7.53-11.9-11.25-17.88l7-.12c.2-5.1-.27-10.28,0-15.38l21.38,32h46l40.5-61.25,40.75,61.25h47.75l40.25-61,19.38,28.75ZM363.38,236.25l-24.12,37.88,24.12,37.88,24.12-38.12-24.12-37.62Z"/>
        <g>
          <path class="st17" d="M256,240.25v.25c0,1.95.44,14.75,0,15.38l-7,.12c-4.13-6.62-8.51-13.11-12.62-19.75l-24.12,38.12,23.88,37.62c.41.11,1.13-1.05,1.38-1.38,5.93-7.72,13.25-20.5,18.5-29.12v54.25c-14.09.37-28.26-.3-42.38,0l-41.75-62c-14.33,20.1-26.87,41.48-41,61.75h-45.25l-39.62-60.12-1.62-1.62L3.38,335.75c-1.12.02-2.25-.03-3.38,0v-54.25c.72-1.19,4.35-6.85,4.25-7.62-3.92-5.85-7.53-11.9-11.25-17.88l7-.12c.2-5.1-.27-10.28,0-15.38l21.38,32h46l40.5-61.25,40.75,61.25h47.75l40.25-61,19.38,28.75ZM107.38,236.25l-24.12,37.88,24.12,37.88,24.12-38.12-24.12-37.62Z"/>
          <path class="st20" d="M249,256c3.72,5.97,7.33,12.02,11.25,17.88.1.77-3.53,6.43-4.25,7.62-5.25,8.63-12.57,21.4-18.5,29.12-.25.32-.97,1.48-1.38,1.38l-23.88-37.62,24.12-38.12c4.11,6.64,8.5,13.13,12.62,19.75Z"/>
          <polygon class="st20" points="107.38 236.25 131.5 273.88 107.38 312 83.25 274.12 107.38 236.25"/>
        </g>
        <g>
          <path class="st17" d="M0,240.25v.25c0,1.95.44,14.75,0,15.38l-7,.12c-4.13-6.62-8.51-13.11-12.62-19.75l-24.12,38.12,23.88,37.62c.41.11,1.13-1.05,1.38-1.38,5.93-7.72,13.25-20.5,18.5-29.12v54.25c-14.09.37-28.26-.3-42.38,0l-41.75-62c-14.33,20.1-26.87,41.48-41,61.75h-45.25l-39.62-60.12-1.62-1.62-41,62c-1.12.02-2.25-.03-3.38,0v-54.25c.72-1.19,4.35-6.85,4.25-7.62-3.92-5.85-7.53-11.9-11.25-17.88l7-.12c.2-5.1-.27-10.28,0-15.38l21.38,32h46l40.5-61.25,40.75,61.25h47.75l40.25-61L0,240.25ZM-148.62,236.25l-24.12,37.88,24.12,37.88,24.12-38.12-24.12-37.62Z"/>
          <path class="st20" d="M-7,256c3.72,5.97,7.33,12.02,11.25,17.88.1.77-3.53,6.43-4.25,7.62-5.25,8.63-12.57,21.4-18.5,29.12-.25.32-.97,1.48-1.38,1.38l-23.88-37.62,24.12-38.12c4.11,6.64,8.5,13.13,12.62,19.75Z"/>
        </g>
        <g>
          <path class="st17" d="M512,208.5c-.01,10,.04,20,0,30l-19.12-28.75c-14.36,20.27-27.26,41.68-41.5,62l-46.25-.25-41.25-61.75c-14.26,20.14-26.9,41.46-41,61.75h-45l-21.88-32.5c0-.17,0-.33,0-.5.04-10-.01-20,0-30,1.37-.05,2.75.04,4.12,0,13.77-20.19,26.31-41.32,40.5-61.25l40.25,61.25h46.5c13.85-20.17,26.52-41.21,40.5-61.25l41,61.25c14.34.06,28.77.51,43.12,0ZM300.12,171.75l-24.12,37.88,24.12,38.12,24.12-38.12-24.12-37.88ZM427.38,171.75l-23.88,38.38,23.88,37.62,24.12-38.12-24.12-37.88Z"/>
          <path class="st17" d="M512-15.75v.25c0,1.95.44,14.75,0,15.38l-7,.12c-4.13-6.62-8.51-13.11-12.62-19.75l-24.12,38.12,23.88,37.62c.41.11,1.13-1.05,1.38-1.38,5.93-7.72,13.25-20.5,18.5-29.12v54.25c-14.09.37-28.26-.3-42.38,0l-41.75-62c-14.33,20.1-26.87,41.48-41,61.75h-45.25l-39.62-60.12-1.62-1.62-41,62c-1.12.02-2.25-.03-3.38,0V25.5c.72-1.19,4.35-6.85,4.25-7.62-3.92-5.85-7.53-11.9-11.25-17.88l7-.12c.2-5.1-.27-10.28,0-15.38l21.38,32h46l40.5-61.25,40.75,61.25h47.75l40.25-61,19.38,28.75ZM363.38-19.75l-24.12,37.88,24.12,37.88,24.12-38.12-24.12-37.62Z"/>
          <path class="st17" d="M512,112.25v26.75c-6.32-10.36-13.26-20.41-19.62-30.75l-24.12,37.88,23.88,37.88c.31.08.68-.42.88-.62,4.4-4.64,15-23.32,19-29.88-.02,18,.03,36,0,54-14.11.44-28.24.13-42.38.25l-41.75-62c-14.34,20.09-26.94,41.44-41,61.75h-45.25l-40.75-61.75c-.92-.26-6.3,8.14-7.12,9.38-11.46,17.04-22.12,34.66-33.5,51.75-1.11,1.34-2.68.58-4.25.62.03-18-.02-36,0-54,1.4-2.3,2.71-4.66,4.25-6.88.11-.8-3.51-6.42-4.25-7.62v-26.5l21.38,32h46l40.5-61.25,40.75,61.25h47.75l40.25-61,19.38,28.75ZM363.38,108.25l-24.12,37.88,24.12,37.88,24.12-38.12-24.12-37.62Z"/>
        </g>
        <g>
          <path class="st17" d="M256,208.5c-.01,10,.04,20,0,30l-19.12-28.75c-14.36,20.27-27.26,41.68-41.5,62l-46.25-.25-41.25-61.75c-14.26,20.14-26.9,41.46-41,61.75H21.88L0,239c0-.17,0-.33,0-.5.04-10-.01-20,0-30,1.37-.05,2.75.04,4.12,0,13.77-20.19,26.31-41.32,40.5-61.25l40.25,61.25h46.5c13.85-20.17,26.52-41.21,40.5-61.25l41,61.25c14.34.06,28.77.51,43.12,0ZM44.12,171.75l-24.12,37.88,24.12,38.12,24.12-38.12-24.12-37.88ZM171.38,171.75l-23.88,38.38,23.88,37.62,24.12-38.12-24.12-37.88Z"/>
          <path class="st17" d="M256,238.5c0,.16,0,.34,0,.5,0,.41,0,.84,0,1.25l-19.38-28.75-40.25,61h-47.75l-40.75-61.25-40.5,61.25H21.38L0,240.5c0-.08,0-.17,0-.25,0-.41,0-.84,0-1.25l21.88,32.5h45c14.1-20.29,26.74-41.61,41-61.75l41.25,61.75,46.25.25c14.24-20.32,27.14-41.73,41.5-62l19.12,28.75Z"/>
          <path class="st17" d="M256,80.5v30l-19.12-28.75-40.62,61.38-.88.62-46.25-.25-41.25-61.75c-14.21,20.17-26.96,41.42-41,61.75H21.88L0,110.75v-30.25c1.36-.08,2.76.06,4.12,0,13.78-20.19,26.39-41.26,40.5-61.25l40.25,61.25h46.5c13.87-20.16,26.57-41.22,40.5-61.25l41,61.25c14.21-.26,28.96.8,43.12,0ZM44.12,44l-24.12,37.88,24.12,37.88,24.12-38.12-24.12-37.62ZM171.38,44l-24.12,37.88,24.12,37.88,24.12-37.88-24.12-37.88Z"/>
          <path class="st17" d="M256,110.5v1.75l-19.38-28.75-40.25,61h-47.75l-40.75-61.25-40.5,61.25H21.38L0,112.5v-1.75l21.88,32.75h45c14.04-20.33,26.79-41.58,41-61.75l41.25,61.75,46.25.25.88-.62,40.62-61.38,19.12,28.75Z"/>
          <path class="st17" d="M256-15.75v.25c0,1.95.44,14.75,0,15.38l-7,.12c-4.13-6.62-8.51-13.11-12.62-19.75l-24.12,38.12,23.88,37.62c.41.11,1.13-1.05,1.38-1.38,5.93-7.72,13.25-20.5,18.5-29.12v54.25c-14.09.37-28.26-.3-42.38,0l-41.75-62c-14.33,20.1-26.87,41.48-41,61.75h-45.25L46,19.38l-1.62-1.62L3.38,79.75c-1.12.02-2.25-.03-3.38,0V25.5c.72-1.19,4.35-6.85,4.25-7.62C.33,12.02-3.28,5.97-7,0L0-.12c.2-5.1-.27-10.28,0-15.38L21.38,16.5h46l40.5-61.25,40.75,61.25h47.75l40.25-61,19.38,28.75ZM107.38-19.75l-24.12,37.88,24.12,37.88,24.12-38.12-24.12-37.62Z"/>
          <path class="st20" d="M249,0c3.72,5.97,7.33,12.02,11.25,17.88.1.77-3.53,6.43-4.25,7.62-5.25,8.63-12.57,21.4-18.5,29.12-.25.32-.97,1.48-1.38,1.38l-23.88-37.62,24.12-38.12c4.11,6.64,8.5,13.13,12.62,19.75Z"/>
          <path class="st17" d="M256,112.25v26.75c-6.32-10.36-13.26-20.41-19.62-30.75l-24.12,37.88,23.88,37.88c.31.08.68-.42.88-.62,4.4-4.64,15-23.32,19-29.88-.02,18,.03,36,0,54-14.11.44-28.24.13-42.38.25l-41.75-62c-14.34,20.09-26.94,41.44-41,61.75h-45.25l-40.75-61.75c-.92-.26-6.3,8.14-7.12,9.38-11.46,17.04-22.12,34.66-33.5,51.75-1.11,1.34-2.68.58-4.25.62.03-18-.02-36,0-54,1.4-2.3,2.71-4.66,4.25-6.88.11-.8-3.51-6.42-4.25-7.62v-26.5l21.38,32h46l40.5-61.25,40.75,61.25h47.75l40.25-61,19.38,28.75ZM107.38,108.25l-24.12,37.88,24.12,37.88,24.12-38.12-24.12-37.62Z"/>
          <path class="st20" d="M256,139c.74,1.21,4.36,6.82,4.25,7.62-1.54,2.21-2.85,4.58-4.25,6.88-4,6.56-14.6,25.24-19,29.88-.19.2-.57.71-.88.62l-23.88-37.88,24.12-37.88c6.36,10.34,13.3,20.39,19.62,30.75Z"/>
          <path class="st17" d="M256,207.5c0,.33,0,.67,0,1-14.36.51-28.79.06-43.12,0l-41-61.25c-13.98,20.04-26.65,41.08-40.5,61.25h-46.5l-40.25-61.25c-14.19,19.93-26.73,41.06-40.5,61.25-1.37.04-2.76-.05-4.12,0,0-.33,0-.67,0-1,1.57-.05,3.14.72,4.25-.62,11.38-17.09,22.04-34.71,33.5-51.75.83-1.23,6.21-9.63,7.12-9.38l40.75,61.75h45.25c14.06-20.31,26.66-41.66,41-61.75l41.75,62c14.13-.12,28.26.19,42.38-.25Z"/>
          <path class="st17" d="M256,79.75v.75c-14.16.8-28.91-.26-43.12,0l-41-61.25c-13.93,20.03-26.63,41.09-40.5,61.25h-46.5L44.62,19.25c-14.11,19.99-26.72,41.06-40.5,61.25-1.37.06-2.76-.08-4.12,0v-.75c1.12-.03,2.25.02,3.38,0L44.38,17.75l1.62,1.62,39.62,60.12h45.25c14.13-20.27,26.67-41.65,41-61.75l41.75,62c14.11-.3,28.29.37,42.38,0Z"/>
          <polygon class="st20" points="44.12 171.75 68.25 209.62 44.12 247.75 20 209.62 44.12 171.75"/>
          <polygon class="st20" points="171.38 171.75 195.5 209.62 171.38 247.75 147.5 210.12 171.38 171.75"/>
          <polygon class="st20" points="44.12 44 68.25 81.62 44.12 119.75 20 81.88 44.12 44"/>
          <polygon class="st20" points="171.38 44 195.5 81.88 171.38 119.75 147.25 81.88 171.38 44"/>
          <polygon class="st20" points="107.38 -19.75 131.5 17.88 107.38 56 83.25 18.12 107.38 -19.75"/>
          <polygon class="st20" points="107.38 108.25 131.5 145.88 107.38 184 83.25 146.12 107.38 108.25"/>
        </g>
        <g>
          <path class="st17" d="M0,208.5c-.01,10,.04,20,0,30l-19.12-28.75c-14.36,20.27-27.26,41.68-41.5,62l-46.25-.25-41.25-61.75c-14.26,20.14-26.9,41.46-41,61.75h-45l-21.88-32.5c0-.17,0-.33,0-.5.04-10-.01-20,0-30,1.37-.05,2.75.04,4.12,0,13.77-20.19,26.31-41.32,40.5-61.25l40.25,61.25h46.5c13.85-20.17,26.52-41.21,40.5-61.25l41,61.25c14.34.06,28.77.51,43.12,0ZM-211.88,171.75l-24.12,37.88,24.12,38.12,24.12-38.12-24.12-37.88ZM-84.62,171.75l-23.88,38.38,23.88,37.62,24.12-38.12-24.12-37.88Z"/>
          <path class="st17" d="M0-15.75v.25C0-13.55.44-.75,0-.12l-7,.12c-4.13-6.62-8.51-13.11-12.62-19.75l-24.12,38.12,23.88,37.62c.41.11,1.13-1.05,1.38-1.38C-12.57,46.9-5.25,34.13,0,25.5v54.25c-14.09.37-28.26-.3-42.38,0l-41.75-62c-14.33,20.1-26.87,41.48-41,61.75h-45.25l-39.62-60.12-1.62-1.62-41,62c-1.12.02-2.25-.03-3.38,0V25.5c.72-1.19,4.35-6.85,4.25-7.62-3.92-5.85-7.53-11.9-11.25-17.88l7-.12c.2-5.1-.27-10.28,0-15.38l21.38,32h46l40.5-61.25,40.75,61.25h47.75L-19.38-44.5,0-15.75ZM-148.62-19.75l-24.12,37.88,24.12,37.88,24.12-38.12-24.12-37.62Z"/>
          <path class="st20" d="M-7,0C-3.28,5.97.33,12.02,4.25,17.88c.1.77-3.53,6.43-4.25,7.62-5.25,8.63-12.57,21.4-18.5,29.12-.25.32-.97,1.48-1.38,1.38l-23.88-37.62L-19.62-19.75C-15.51-13.11-11.13-6.62-7,0Z"/>
          <path class="st17" d="M0,112.25v26.75c-6.32-10.36-13.26-20.41-19.62-30.75l-24.12,37.88,23.88,37.88c.31.08.68-.42.88-.62,4.4-4.64,15-23.32,19-29.88-.02,18,.03,36,0,54-14.11.44-28.24.13-42.38.25l-41.75-62c-14.34,20.09-26.94,41.44-41,61.75h-45.25l-40.75-61.75c-.92-.26-6.3,8.14-7.12,9.38-11.46,17.04-22.12,34.66-33.5,51.75-1.11,1.34-2.68.58-4.25.62.03-18-.02-36,0-54,1.4-2.3,2.71-4.66,4.25-6.88.11-.8-3.51-6.42-4.25-7.62v-26.5l21.38,32h46l40.5-61.25,40.75,61.25h47.75l40.25-61L0,112.25ZM-148.62,108.25l-24.12,37.88,24.12,37.88,24.12-38.12-24.12-37.62Z"/>
          <path class="st20" d="M0,139c.74,1.21,4.36,6.82,4.25,7.62-1.54,2.21-2.85,4.58-4.25,6.88-4,6.56-14.6,25.24-19,29.88-.19.2-.57.71-.88.62l-23.88-37.88,24.12-37.88c6.36,10.34,13.3,20.39,19.62,30.75Z"/>
        </g>
        <path class="st17" d="M512-47.5c-.01,10,.04,20,0,30l-19.12-28.75c-14.36,20.27-27.26,41.68-41.5,62l-46.25-.25-41.25-61.75c-14.26,20.14-26.9,41.46-41,61.75h-45l-21.88-32.5c0-.17,0-.33,0-.5.04-10-.01-20,0-30,1.37-.05,2.75.04,4.12,0,13.77-20.19,26.31-41.32,40.5-61.25l40.25,61.25h46.5c13.85-20.17,26.52-41.21,40.5-61.25l41,61.25c14.34.06,28.77.51,43.12,0ZM300.12-84.25l-24.12,37.88,24.12,38.12,24.12-38.12-24.12-37.88ZM427.38-84.25l-23.88,38.38,23.88,37.62,24.12-38.12-24.12-37.88Z"/>
        <g>
          <path class="st17" d="M256-47.5c-.01,10,.04,20,0,30l-19.12-28.75c-14.36,20.27-27.26,41.68-41.5,62l-46.25-.25-41.25-61.75c-14.26,20.14-26.9,41.46-41,61.75H21.88L0-17c0-.17,0-.33,0-.5.04-10-.01-20,0-30,1.37-.05,2.75.04,4.12,0,13.77-20.19,26.31-41.32,40.5-61.25l40.25,61.25h46.5c13.85-20.17,26.52-41.21,40.5-61.25l41,61.25c14.34.06,28.77.51,43.12,0ZM44.12-84.25l-24.12,37.88L44.12-8.25l24.12-38.12-24.12-37.88ZM171.38-84.25l-23.88,38.38,23.88,37.62,24.12-38.12-24.12-37.88Z"/>
          <path class="st17" d="M256-17.5c0,.16,0,.34,0,.5,0,.41,0,.84,0,1.25l-19.38-28.75-40.25,61h-47.75l-40.75-61.25-40.5,61.25H21.38L0-15.5c0-.08,0-.17,0-.25,0-.41,0-.84,0-1.25L21.88,15.5h45c14.1-20.29,26.74-41.61,41-61.75l41.25,61.75,46.25.25c14.24-20.32,27.14-41.73,41.5-62l19.12,28.75Z"/>
        </g>
        <path class="st17" d="M0-47.5c-.01,10,.04,20,0,30l-19.12-28.75C-33.48-25.98-46.38-4.57-60.62,15.75l-46.25-.25-41.25-61.75c-14.26,20.14-26.9,41.46-41,61.75h-45l-21.88-32.5c0-.17,0-.33,0-.5.04-10-.01-20,0-30,1.37-.05,2.75.04,4.12,0,13.77-20.19,26.31-41.32,40.5-61.25l40.25,61.25h46.5c13.85-20.17,26.52-41.21,40.5-61.25l41,61.25c14.34.06,28.77.51,43.12,0ZM-211.88-84.25l-24.12,37.88,24.12,38.12,24.12-38.12-24.12-37.88ZM-84.62-84.25l-23.88,38.38,23.88,37.62,24.12-38.12-24.12-37.88Z"/>
      </g>
    </pattern>
  </defs>
  <g id="Capa_1">
    <g id="Objeto_generativo">
      <path class="st23" d="M749.06,0l152.46,2c57.62,133.84,153.72,251.45,259.17,351.5l-1.02,278.5-200.22,1c.39-4.98,2-18.76,0-23-3.55-7.54-43.56-8.37-52.85-10,.37-1.48-.96-28.9-2.03-30-5.5-5.63-74.55-9.35-86.9-10-55.09-2.91-113.48-3.58-168.72-3-22.99.24-182.72,4.35-191.59,13-3.24,9.42,3.4,21.7-2.03,30-4.04-.97-44.53,5.16-46.75,9-2.88,6.63-.06,15.03,0,21.5,0,.72-2.04,1.38-2.03,1.5l-205.31,1-1.02-279.5C302.27,253.73,403.82,136.06,457.37,3l71.15-3h220.55Z"/>
      <path class="st3" d="M406.55,632c.03.57.89,7.37,1.02,8-15.65.63-31.7,2.46-46.24,8-1.6.93-1.21,1.79-1.52,3-1.16,4.44-.23,24.98,0,31-12.65,1.85-90.13,10.55-93.51,20.5-2.55,7.51,16.24,12.9,21.85,14.5,34.66,9.92,90.14,13.21,127.05,16,141.77,10.73,294.84,10.98,437.04,5,36.89-1.55,215.18-10.74,236.81-28,2.05-1.63,4.19-3.45,3.56-6.5-2.31-9.92-72.69-19.48-84.36-19.5.18-3.68-.46-30.82-1.02-33-2.1-8.18-38.58-10.62-46.75-11,.04-.36-1.22-4.46-1.02-7l200.22-1,1.52,8c4.57.11,9.17-.16,13.72,0,4.88.17,10.42-1.06,14.23-1,9.05.15,18.28.92,27.44,1,7.1.06,14.24-.04,21.34,0,13.23.07,26.5,0,39.64,0,17.56,0,35.25-.06,52.85,0,8.76.03,17.68-.33,26.43,0,3.17.12,6.07.3,9.15,1v127H0v-128h28.46c17.26,0,34.57,0,51.83,0,13.21,0,26.38.07,39.64,0,7.44-.04,14.92.08,22.36,0s14.92.08,22.36,0c3.71-.04,7.47.08,11.18,0,4.52-.09,8.85-.77,13.21-1,1.39-.07,8.93,2.2,10.67,1l1.52-7,205.31-1Z"/>
      <path class="st13" d="M1277.58,0l-1.02,2h-25.41c-40.63,0-81.33-.42-121.96.5,14.55,106.45,39.62,211.34,74.19,313,2.96,8.7,6.64,21.64,13.21,27v297.5c-9.16-.08-18.39-.85-27.44-1v-291.5c-48.21-81.75-87.42-174.05-117.9-264-7.2-21.25-21.06-58.44-23.38-79.5-.14-1.29-1.01-2,0-4h229.7Z"/>
      <path class="st13" d="M270.35,0l41.67,2.5c-28.14,104.33-68.21,206.35-118.92,302-7.25,13.67-15.94,32.78-27.44,42l-1.02,293.5c-7.44.08-14.92-.08-22.36,0v-302.5C185.76,230.57,214.83,117.29,228.68,2.5l-117.9-.5-1.02-2h160.59Z"/>
      <path class="st12" d="M3.05,0c-.44,3,2.72,1.95,4.57,2,7.26.21,14.6-.01,21.85,0v637l-1.02,1H0V0h3.05Z"/>
      <path class="st23" d="M109.77,0l1.02,2-2.03,636.5,11.18.5v1c-13.25.07-26.43,0-39.64,0V0h29.47Z"/>
      <path class="st12" d="M950.31,0c22.71,66.09,57.86,131.31,95.54,190.5,28.85,45.33,73.14,110.41,110.78,148,5.63,5.62,9.85,11.65,18.29,12.5v289c-4.55-.16-9.16.11-13.72,0l-1.52-8,1.02-278.5c-105.45-100.05-201.55-217.66-259.17-351.5-.31-.71,1.19-1.15,1.02-2h47.77Z"/>
      <path class="st26" d="M409.6,0c-.02.66.04,1.34,0,2l-46.75-.5c-31.22,91.91-74.11,180.19-125.01,263-12.67,20.61-28.41,46.93-42.69,66-6.37,8.51-10.1,14.48-19.31,18v291.5c-3.71.08-7.47-.04-11.18,0l1.02-293.5c11.5-9.22,20.2-28.33,27.44-42C243.81,208.85,283.88,106.83,312.03,2.5l-41.67-2.5h139.24Z"/>
      <path class="st12" d="M457.37,0c-.15.91.26,2.36,0,3-53.55,133.06-155.09,250.73-257.14,350.5l1.02,279.5-1.52,7c-1.74,1.2-9.28-1.07-10.67-1l1.02-287.5c73.64-80.88,140.38-175.63,188.03-274,6.47-13.36,30.83-64.04,31.51-75.5.04-.66-.02-1.34,0-2h47.77Z"/>
      <path class="st2" d="M1355.84,0v2c-8.38-1.07-17.19,1-25.41,1-4.38,0-29.85-3.18-31.51.5v635l31.51.5v1c-17.6-.06-35.29,0-52.85,0l-1.02-638,1.02-2h78.26Z"/>
      <path class="st2" d="M80.29,0v640c-17.26,0-34.57,0-51.83,0l1.02-1,29.47-.5L59.97,2.5c-10.12-.93-20.35-.48-30.49-.5-7.25-.01-14.59.21-21.85,0-1.86-.05-5.02,1-4.57-2h77.24Z"/>
      <path class="st26" d="M1047.88,0c-1.01,2-.14,2.71,0,4l-50.31-2c20.51,65.55,50.38,130.61,82.83,191.5,28.17,52.86,60.24,103.84,94.52,153v4.5c-8.44-.85-12.66-6.88-18.29-12.5-37.64-37.59-81.93-102.67-110.78-148-37.68-59.19-72.83-124.41-95.54-190.5h97.57Z"/>
      <path class="st12" d="M1355.84,0h10.16v641c-3.08-.7-5.98-.88-9.15-1l-1.02-638V0Z"/>
      <path class="st28" d="M902.54,0c.17.85-1.32,1.29-1.02,2l-152.46-2h153.47Z"/>
      <path class="st28" d="M528.51,0l-71.15,3c.26-.64-.15-2.09,0-3h71.15Z"/>
      <path class="st13" d="M689.1,625v38c-92.17.08-188.91,1.19-278.99-16-2.07-1.58-2.1-4.78-2.54-7-.12-.63-.99-7.43-1.02-8,0-.12,2.04-.78,2.03-1.5-.06-6.47-2.88-14.87,0-21.5,4.51,3.98,12.64,5.03,18.8,6,80.14,12.64,179.81,10.07,261.72,10Z"/>
      <path class="st1" d="M904.57,570c-20.49,6.16-44.06,7.55-65.56,9-49.04,3.32-101.69,3.92-150.93,4-53.27.08-110.03-.57-163.13-4-21.9-1.41-47.11-2.45-67.59-9,8.87-8.65,168.6-12.76,191.59-13,55.23-.58,113.62.09,168.72,3,12.35.65,81.4,4.37,86.9,10Z"/>
      <path class="st13" d="M688.08,583v35c-66.79.15-165.87,1.43-229.19-14-1.08-.26-3.29-3.94-3.56-4,5.43-8.3-1.21-20.58,2.03-30,20.48,6.55,45.68,7.59,67.59,9,53.09,3.43,109.85,4.08,163.13,4Z"/>
      <path class="st21" d="M906.6,600c-.9,3.58-4.36,4.96-7.62,6-41.34,13.2-162.85,11.89-210.9,12v-35c49.24-.08,101.89-.68,150.93-4,21.5-1.45,45.07-2.84,65.56-9,1.07,1.1,2.4,28.52,2.03,30Z"/>
      <path class="st21" d="M959.45,610c2,4.24.39,18.02,0,23-.2,2.54,1.06,6.64,1.02,7-.2,1.68-1.22,5.71-2.54,7-8.86,8.66-119.69,13.23-138.73,14-3.06-2.63-16.48.39-18.29-1.5-1.34-1.4-1.32-31.02,0-35.5,52.48-1.63,107.51-2.9,158.55-14Z"/>
      <path class="st26" d="M455.33,600c.26.06,2.48,3.74,3.56,4,63.32,15.43,162.4,14.15,229.19,14,48.04-.11,169.55,1.2,210.9-12,3.26-1.04,6.73-2.42,7.62-6,9.29,1.63,49.3,2.46,52.85,10-51.04,11.1-106.07,12.37-158.55,14-37.24,1.15-74.53.97-111.8,1-81.91.07-181.57,2.64-261.72-10-6.16-.97-14.3-2.02-18.8-6,2.22-3.84,42.71-9.97,46.75-9Z"/>
      <path class="st21" d="M1251.15,2v636.5l-13.21,1.5c-7.1-.04-14.24.06-21.34,0v-297.5c-6.57-5.36-10.26-18.3-13.21-27-34.57-101.66-59.64-206.55-74.19-313,40.63-.92,81.33-.5,121.96-.5Z"/>
      <path class="st21" d="M142.29,640c-7.44.08-14.92-.04-22.36,0v-1l.51-295-.51,295-11.18-.5L110.78,2l117.9.5c-13.85,114.79-42.92,228.07-86.39,335v302.5Z"/>
      <path class="st11" d="M689.1,719c51.57.02,103.48.03,155-2,22.72-.89,148.77-6.66,160.59-16,2.81-2.22,3.36-12.95,3.56-17,11.67.02,82.05,9.58,84.36,19.5.63,3.05-1.51,4.87-3.56,6.5-21.63,17.26-199.93,26.45-236.81,28-142.19,5.98-295.27,5.73-437.04-5-36.91-2.79-92.38-6.08-127.05-16-5.61-1.6-24.4-6.99-21.85-14.5,3.37-9.95,80.86-18.65,93.51-20.5.21,5.47-.15,11.01,0,16.5,1.89,5.04,44.02,10.64,51.33,11.5,87.58,10.34,189.19,8.96,277.98,9Z"/>
      <path class="st23" d="M1276.56,2l1.02,638c-13.14,0-26.41.07-39.64,0l13.21-1.5V2h25.41Z"/>
      <path class="st12" d="M1355.84,2l1.02,638c-8.75-.33-17.66.03-26.43,0V3c8.22,0,17.03-2.07,25.41-1Z"/>
      <path class="st13" d="M689.1,670v49c-88.79-.04-190.4,1.34-277.98-9-7.31-.86-49.43-6.46-51.33-11.5-.15-5.49.21-11.03,0-16.5-.23-6.02-1.16-26.56,0-31,29.89,10.09,65.34,11.75,97.06,14,77.06,5.45,154.97,5.04,232.24,5Z"/>
      <path class="st26" d="M409.6,2c-.67,11.46-25.03,62.14-31.51,75.5-47.64,98.37-114.39,193.12-188.03,274l-1.02,287.5c-4.36.23-8.69.91-13.21,1v-291.5c9.21-3.52,12.94-9.49,19.31-18,14.27-19.07,30.02-45.39,42.69-66C288.73,181.69,331.63,93.41,362.84,1.5l46.75.5Z"/>
      <path class="st21" d="M1008.24,684c-.19,4.05-.75,14.78-3.56,17-11.82,9.34-137.86,15.11-160.59,16-51.52,2.03-103.43,2.02-155,2v-49c74.54-.04,149.78.48,224.11-5,30.89-2.28,65.1-4.33,94.01-14,.56,2.18,1.19,29.32,1.02,33Z"/>
      <path class="st26" d="M1047.88,4c2.32,21.06,16.18,58.25,23.38,79.5,30.48,89.95,69.69,182.25,117.9,264v291.5c-3.81-.06-9.35,1.17-14.23,1v-293.5c-34.28-49.16-66.36-100.14-94.52-153-32.45-60.89-62.32-125.95-82.83-191.5l50.31,2Z"/>
      <path class="st26" d="M407.56,640c.44,2.22.47,5.42,2.54,7,90.08,17.19,186.83,16.08,278.99,16,43.37-.04,86.78-.25,130.1-2,19.05-.77,129.88-5.34,138.73-14,1.32-1.29,2.34-5.32,2.54-7,8.17.38,44.65,2.82,46.75,11-28.91,9.67-63.13,11.72-94.01,14-74.33,5.48-149.57,4.96-224.11,5-77.27.04-155.18.45-232.24-5-31.72-2.25-67.17-3.91-97.06-14,.32-1.21-.07-2.07,1.52-3,14.55-5.54,30.6-7.37,46.24-8Z"/>
      <path class="st12" d="M29.47,639V2c10.14.02,20.37-.43,30.49.5l-1.02,636-29.47.5Z"/>
      <path class="st12" d="M1330.43,3v636l-31.51-.5V3.5c1.66-3.68,27.13-.5,31.51-.5Z"/>
      <path class="st21" d="M800.9,624c-1.32,4.48-1.34,34.1,0,35.5,1.82,1.89,15.24-1.13,18.29,1.5-43.32,1.75-86.72,1.96-130.1,2v-38c37.27-.03,74.56.15,111.8-1Z"/>
      <path class="st23" d="M119.93,639l.51-295-.51,295Z"/>
    </g>
  </g>
  <g id="Capa_2">
    <ellipse class="st4" cx="1028.01" cy="198.22" rx="30.88" ry="120.59" transform="translate(147.52 764.64) rotate(-43.67)"/>
    <path class="st5" d="M981.45,143.93s26.71,8.21,67.69-36.02c40.98-44.23,43.35-68.6,43.35-68.6l120.13,95.53s-48.78,20.46-74.93,48.68c-26.15,28.22-50.17,71.63-50.17,71.63,0,0-46.94-27.23-66.52-49.38-19.57-22.15-39.57-61.84-39.57-61.84Z"/>
    <ellipse class="st6" cx="1152.56" cy="87.08" rx="25.25" ry="76.74" transform="translate(367.03 934.97) rotate(-51.51)"/>
    <path class="st8" d="M1026.63,121.51s28.92,48.85,45.1,63.84c16.18,14.99,49.1,23.44,49.1,23.44l-21.61,24.93s-20.35,2.34-46.32-23.72c-25.97-26.07-50.11-68.42-50.11-68.42l23.84-20.07Z"/>
    <path class="st9" d="M836,588.71s77.01-15.27,120.59-41.18c54.41-32.35,91.11-76.47,91.11-76.47l16.25,11.76s-41.18,59.56-89.71,86.76c-56.32,31.58-130.88,44.12-130.88,44.12l-7.35-25Z"/>
    <g>
      <polygon class="st17" points="440.84 59.57 466.63 207.82 365.72 232.37 339.93 84.12 440.84 59.57"/>
      <g>
        <polygon class="st20" points="357.06 100.61 430.81 82.87 449.48 191.2 375.73 208.95 357.06 100.61"/>
        <g>
          <polygon class="st17" points="371.8 109.1 419.85 97.47 434.74 182.72 386.58 194.37 371.8 109.1"/>
          <path class="st20" d="M409.2,152.98c-2.58-9.22-7.32-18.76-9.57-27.99-1.43-5.91-1.75-12.34-3.29-18.25l.12-.3,19.84,20.59-7.11,25.94Z"/>
          <path class="st20" d="M399.63,124.99c-.11.7,0,1.44.02,2.14.2,8.55,1.12,19.23.68,27.53,0,.09-.14.49-.26.53l-15.06-20.42,11.32-28.04c1.55,5.9,1.86,12.34,3.29,18.25Z"/>
          <path class="st20" d="M409.2,152.98c.33,10.21.71,20.42.87,30.64-.17.15-.4-.31-.42-.37-2.03-6.65-1.84-15.87-3.95-22.71l.11-.03c1.27-1.92,2.18-4.1,3.01-6.3.01-.33-.36.14-.38.16-.55.73-1.61,2.92-2.14,3.87-.09.16-.63.64-.64.69-.22.15-.32-.14-.38-.18.02-.44.12-1.15.08-1.56-.03-.33-.49-3.07-.56-3.22-.17-.34-.75.04-.86-.19-.03-.06-.34-1.27-.36-1.39-.35-1.76-.51-4.2-.85-6.23-.17-.99-.16-2.13-.31-3.14-.02-.11-.34.07-.36-.05-.55-3.61-.78-7.33-1.32-10.95-.23-1.56-.46-3.58-1.09-4.9-.02-.7-.13-1.44-.02-2.14,2.24,9.23,6.99,18.77,9.57,27.99Z"/>
          <path class="st17" d="M405.27,158.77c-1.07-.52-1.84-1.14-2.79-1.87.18-.77-.24-.2-.27-.2-.61-.14-1-.64-1.52-.97.22.5.78,1.09,1.14,1.47-.64.81.65,2.16-.21,2.87-.54-1.6-.87-3.31-1.55-4.85.12-.04.25-.44.26-.53.43-8.31-.48-18.98-.68-27.53.62,1.32.86,3.34,1.09,4.9.54,3.62.77,7.33,1.32,10.95.02.11.34-.07.36.05.16,1.02.15,2.15.31,3.14.34,2.03.5,4.47.85,6.23.02.11.33,1.32.36,1.39.11.24.69-.15.86.19.07.14.53,2.89.56,3.22.04.41-.06,1.12-.08,1.56Z"/>
          <path class="st17" d="M405.7,160.54c2.11,6.84,1.92,16.07,3.95,22.71.02.06.25.52.42.37,0,.34.11,1.01-.08,1.23-3.1-8.1-5.57-16.53-8.36-24.79.85-.71-.43-2.05.21-2.87,1.18,1.24,2.55,2.31,3.87,3.35Z"/>
          <path class="st20" d="M402.21,156.69c0,.16.23.17.27.2.95.73,1.72,1.35,2.79,1.87.06.03.16.33.38.18-.14.51.11,1.06.16,1.57l-.11.03c-1.32-1.04-2.69-2.11-3.87-3.35-.36-.38-.91-.97-1.14-1.47.52.33.91.83,1.52.97Z"/>
          <path class="st20" d="M405.81,160.51c-.04-.51-.3-1.06-.16-1.57.01-.05.56-.54.64-.69.53-.96,1.59-3.15,2.14-3.87.02-.02.39-.49.38-.16-.83,2.2-1.74,4.38-3.01,6.3Z"/>
          <path class="st17" d="M402.48,156.9s-.26-.04-.27-.2c.03,0,.45-.57.27.2Z"/>
        </g>
      </g>
    </g>
    <g>
      <polygon class="st17" points="310.05 89.4 415.5 202.33 341.22 299.31 235.77 186.38 310.05 89.4"/>
      <path class="st20" d="M348.92,161.71l-18.9,24.68c-5.31-3.53-10.85-6.7-16.17-10.22-4.41-2.92-8.63-6.27-13.18-8.9,2.62,5.08,5.76,9.75,8.61,14.64.09.16.19.34.28.5,3.39,5.82,6.62,11.79,10.01,17.61l-18.9,24.68c-.12-.09-.01-.18,0-.21.01-.15.1-.26-.09-.1l-41.16-44.37,47.9-62.98c14.04,14.65,27.73,29.79,41.61,44.66Z"/>
      <path class="st17" d="M348.92,161.71c13.77,14.75,27.73,29.28,41.41,44.15-5.83,8.06-12.11,15.68-18.12,23.55l-36.61-39.21c-1.84-1.31-3.71-2.57-5.58-3.81l18.9-24.68Z"/>
      <path class="st17" d="M319.57,200.02c1.27,2.18,2.46,4.46,3.77,6.6l36.35,39.12c-5.94,7.74-11.58,15.86-17.87,23.22l-41.15-44.27,18.9-24.68Z"/>
      <path class="st20" d="M335.6,190.19l36.61,39.21c-3.22,4.22-6.37,8.55-9.61,12.76l-.27-.29,6.84-8.93c.05-.12-.14-.23-.14-.25.01-.08.27-.24.2-.37-.1,0-.51-.15-.53-.18-11.81-12.69-23.66-25.31-35.47-37.99.18-.22.12-.56.14-.84.19-2.41-.08-2.74,2.23-3.13Z"/>
      <path class="st20" d="M323.59,204.13l2.85-.89c.12.41.39.48.43.85,11.7,12.75,23.67,25.16,35.46,37.78l.27.29c-.94,1.22-1.98,2.37-2.91,3.58l-36.35-39.12c-.14-.85-.06-1.73.25-2.5Z"/>
      <path class="st17" d="M300.66,224.5l-.09-.1c.19-.17.1-.06.09.1Z"/>
      <path class="st17" d="M312.68,179.44l.43-.13c-.14.27-.26.64-.44.9l17.16,18.38s.12.1,0,.21c-.45.31-2.76.58-2.98.85-.15.17-.5,3.29-.42,3.59l-2.85.89c.27-.68.67-1.31,1.1-1.87l-13.45-20.61-1.67.77c-.09-.16-.19-.34-.28-.5,1.34-.03,2.6-1.31,3.39-2.47Z"/>
      <path class="st17" d="M330.02,186.38c1.87,1.24,3.74,2.5,5.58,3.81-2.31.38-2.04.72-2.23,3.13l-19.72-14.82c-.18-.02-.42.6-.53.81l-.43.13c.68-1,1-2.03,1.17-3.27,5.32,3.52,10.86,6.69,16.17,10.22Z"/>
      <path class="st17" d="M323.59,204.13c-.31.77-.39,1.65-.25,2.5-1.32-2.14-2.5-4.42-3.77-6.6-3.39-5.82-6.61-11.79-10.01-17.61l1.67-.77,13.45,20.61c-.43.56-.83,1.19-1.1,1.87Z"/>
      <path class="st20" d="M313.85,176.16c-.17,1.24-.49,2.27-1.17,3.27-.79,1.16-2.05,2.44-3.39,2.47-2.85-4.89-5.99-9.56-8.61-14.64,4.55,2.63,8.77,5.98,13.18,8.9Z"/>
      <path class="st20" d="M329.84,198.8l35.47,37.99,3.72-4.09s.19.13.14.25l-6.84,8.93c-11.79-12.62-23.76-25.03-35.46-37.78-.04-.38-.31-.44-.43-.85-.09-.31.27-3.42.42-3.59.22-.27,2.53-.53,2.98-.85Z"/>
      <path class="st20" d="M333.23,194.16c11.81,12.68,23.67,25.3,35.47,37.99.02.02.43.17.53.18.07.13-.19.29-.2.37l-3.72,4.09-35.47-37.99c.11-.11,0-.18,0-.21-.05-.33.53-3.44.85-3.72.24-.21,2.13-.44,2.55-.72Z"/>
      <path class="st17" d="M333.37,193.32c-.02.27.04.61-.14.84-.42.27-2.31.51-2.55.72-.32.28-.9,3.39-.85,3.72l-17.16-18.38c.18-.26.3-.64.44-.9.11-.21.35-.82.53-.81l19.72,14.82Z"/>
    </g>
    <g>
      <polygon class="st7" points="350.72 251.56 328.51 332.85 221.99 292.16 244.2 210.86 350.72 251.56"/>
      <g id="Objeto_generativo1" data-name="Objeto_generativo">
        <polygon class="st12" points="235.68 183.74 371.06 235.46 337.04 359.97 201.66 308.25 235.68 183.74"/>
        <path class="st21" d="M284.32,226.58l-16.69,12.65c-5.83-1.8-11.27-1.27-16.62,1.94-2.9,1.74-4.99,3.56-6.9,6.73-1.41,2.34-2.12,4.13-2.8,6.91-1.21,4.99-1.07,11.13,1.39,15.57,1.61,2.89,5.33,6.53,8.34,5.8l.24.09,14.76,29.12,1.96,3.74-9.6-36.12c.33-.15,1.55-1.13,1.92-1.11,2.07.14,5.66,2.77,7.97,2.89,13.67,5.51,27.46,10.65,41.21,15.9l27.5,10.51c-2.87,10.45-5.32,21.1-8.64,31.38l-106.12-40.54,22.02-80.83,40.05,15.38Z"/>
        <path class="st23" d="M284.32,226.58l.37-.17,65.93,25.19c-1.48,5.88-3.15,11.7-4.73,17.53-22.84-8.53-45.54-17.65-68.39-26.13-3.23-1.2-6.63-2.77-9.87-3.77l16.69-12.65Z"/>
        <path class="st27" d="M277.5,243c22.86,8.48,45.55,17.6,68.39,26.13-.74,2.73-1.5,5.47-2.24,8.2l-78.69-29.76c-.69-.44-2.11-1.44-2.82-1.54,4.57-3.19,10.16-3.84,15.36-3.03Z"/>
        <path class="st18" d="M343.65,277.33c-.72,2.64-1.45,5.28-2.16,7.92l-61.97-23.52c-.3-.33-.61-.64-.91-.96-4.02-4.37-8.88-10.17-13.66-13.2l78.69,29.76Z"/>
        <path class="st0" d="M341.49,285.25c-.64,2.36-1.29,4.73-1.94,7.09l-49.59-18.95c-.12-.04-.24-.09-.35-.13-3.38-3.81-6.67-7.77-10.09-11.53l61.97,23.52Z"/>
        <path class="st24" d="M339.55,292.33c-.81,2.96-1.74,5.9-2.55,8.85l-27.5-10.51-6.5-4.48c-4.59-3.91-9.02-8.11-13.05-12.81l49.59,18.95Z"/>
        <path class="st25" d="M289.61,273.25c.12.04.24.09.35.13,4.03,4.7,8.46,8.9,13.05,12.81l6.5,4.48c-13.75-5.25-27.54-10.39-41.21-15.9-3.37-5.24-7.49-11.02-12.49-14.13l.6-.08,33.2,12.68Z"/>
        <path class="st24" d="M241.31,254.8l8.93,3.87c-2.3,5.82-2.05,12.07.8,17.49-3.01.74-6.74-2.91-8.34-5.8-2.46-4.44-2.6-10.58-1.39-15.57Z"/>
        <path class="st24" d="M251,241.16c5.35-3.2,10.8-3.74,16.62-1.94,3.24,1,6.64,2.57,9.87,3.77-5.2-.81-10.79-.16-15.36,3.03-.18-.03-.22-.02-.39,0l-10.6-4.2-.14-.67Z"/>
        <path class="st18" d="M251,241.16l.14.67,10.6,4.2c-1.16.19-5.84,4.52-6.87,5.66-.1.11-.41.31-.5.42l-10.27-4.23c1.91-3.16,4-4.99,6.9-6.73Z"/>
        <path class="st0" d="M258.4,272.99l9.6,36.12-1.96-3.74-11.8-30.44c1.4-.64,2.75-1.32,4.16-1.94Z"/>
        <path class="st0" d="M244.11,247.89l10.27,4.23c-1.56,1.83-2.95,3.99-3.93,6.32-.05.13-.14.11-.19.23l-8.93-3.87c.67-2.78,1.39-4.57,2.8-6.91Z"/>
        <path class="st10" d="M251.28,276.26c1-.38,1.98-.88,2.96-1.33l11.8,30.44-14.76-29.12Z"/>
        <path class="st25" d="M254.88,251.7c1.03-1.14,5.71-5.47,6.87-5.66.17-.03.21-.03.39,0,.72.1,2.13,1.1,2.82,1.54,4.78,3.03,9.63,8.83,13.66,13.2l-23.74-9.07Z"/>
        <path class="st22" d="M254.37,252.12c.09-.11.4-.31.5-.42l23.74,9.07c.3.32.61.63.91.96,3.42,3.76,6.71,7.71,10.09,11.53l-33.2-12.68-.6.08c-1.69-1.05-3.44-1.98-5.37-2.2.98-2.33,2.38-4.49,3.93-6.32Z"/>
        <g>
          <path class="st12" d="M250.24,258.67c.05-.12.14-.11.19-.23,1.93.22,3.68,1.15,5.37,2.2,5,3.11,9.12,8.89,12.49,14.13-2.31-.12-5.9-2.75-7.97-2.89-.38-.03-1.59.96-1.92,1.11-1.41.62-2.77,1.3-4.16,1.94-.98.45-1.96.94-2.96,1.33l-.24-.09c-2.85-5.43-3.1-11.68-.8-17.49Z"/>
          <g>
            <path class="st0" d="M250.65,267.65c.21-3.55,4.51-1.63,2.82,1.08-.83,1.33-2.91.33-2.82-1.08Z"/>
            <path class="st12" d="M250.88,267.28c.22-.81,1.51-.79,1.64.17.22,1.59-2.04,1.29-1.64-.17Z"/>
          </g>
        </g>
      </g>
      <g id="Objeto_generativo2" data-name="Objeto_generativo">
        <polygon class="st17" points="235.68 183.74 371.06 235.46 337.04 359.97 201.66 308.25 235.68 183.74"/>
        <g>
          <polygon class="st20" points="221.94 291.98 244.27 210.96 350.62 251.83 328.29 332.84 221.94 291.98"/>
          <polygon class="st20" points="222.4 291.7 244.5 211.52 350.19 251.97 328.17 332.34 222.4 291.7"/>
          <path class="st17" d="M239.86,253.94c28.22,10.3,56.05,22.59,84.4,32.4.92.32,2.29.83,3.23.77,1.23.61,3.32,1.32,4.33,1.96.16.1.43.08.16.37-14.73-5.11-30.71-5.97-45.49-.96-15.85-11.38-31.74-23-47.28-34.79l.65.25Z"/>
          <path class="st17" d="M294.72,258.33c8.33,12.94,20.1,22.49,32.76,28.78-.94.06-2.31-.46-3.23-.77-28.35-9.81-56.17-22.1-84.4-32.4l54.87,4.39Z"/>
          <path class="st20" d="M327.48,287.11c-12.66-6.3-24.43-15.85-32.76-28.78,11.8,4.14,24.17,11,32.68,21.69.86,1.08,6.2,8.83,5.82,9.82-14.48,7.92-32.17,5.08-46.74-1.36,14.77-5.01,30.75-4.15,45.49.96.27-.29,0-.27-.16-.37-1.01-.64-3.1-1.35-4.33-1.96Z"/>
        </g>
      </g>
      <g id="Objeto_generativo3" data-name="Objeto_generativo">
        <polygon class="st17" points="235.68 183.74 371.06 235.46 337.04 359.97 201.66 308.25 235.68 183.74"/>
        <path class="st17" d="M350.17,251.58s.08.02.12.04l-.04.14c-1.1.74-2.13,1.93-3.4,2.23-18.61,1.93-37.12,5.65-55.71,7.72-1.84.2-3.68.43-5.52.5l-.12-.04c-10.04-4.78-16.25-15.4-21.35-26.11-2.7-5.67-4.69-11.99-7.34-17.54-.11-.22-.18-.59-.22-.85-.3-.13-.2.27-.19.46.06,1.09.84,4.19,1.1,5.48,2.23,10.98,4.61,25.12,7.54,35.57.18.63.29,1.1.58,1.68.32.64,3.22,4.09,3.1,4.33l-4.93,1.42-28.5,28.32c.35.39,1.15-.59,1.38-.78,12.82-7.92,28.59-19.67,43.66-14.93.26.08.48.13.74.13,1.35,1.23,2.66,2.5,3.95,3.81,14.23,14.51,27.38,30.63,41.67,45.08.73,1.21,1.06,2.65,1.57,3.98l-.04.14-105.75-40.94,22.07-80.04c34.77,13.51,69.69,26.37,104.43,40.05.11.04,1.12.11,1.19.15Z"/>
        <path class="st20" d="M265.61,260.86c6.67.33,13.33,1.6,20.01,1.35,1.84-.07,3.69-.29,5.52-.5,18.59-2.07,37.1-5.79,55.71-7.72,1.27-.31,2.3-1.49,3.4-2.23,0,0,.13.07.16-.09l-22.06,80.74c.06-.15-.08-.17-.08-.18-.51-1.33-.84-2.77-1.57-3.98-14.3-14.45-27.44-30.57-41.67-45.08-1.29-1.32-2.6-2.59-3.95-3.81-5.37-4.88-11.36-8.91-17.28-12.74l4.93-1.42c.12-.24-2.78-3.69-3.1-4.33Z"/>
        <path class="st17" d="M350.17,251.58c-.07-.03-1.08-.11-1.19-.15-34.74-13.68-69.67-26.54-104.43-40.05l-22.07,80.04,105.75,40.94-.6.08-105.18-40.18-.28-.64,22.33-80.55,105.67,40.52Z"/>
        <path class="st17" d="M328.34,332.4s-.08-.04-.12-.04l.04-.14s.14.03.08.18Z"/>
        <path class="st17" d="M350.4,251.67c-.02.17-.15.09-.16.09l.04-.14s.08.02.12.04Z"/>
        <path class="st20" d="M263.78,266.61c5.93,3.83,11.91,7.87,17.28,12.74-.27,0-.48-.05-.74-.13.17-.23-.45-.62-.53-.66-3.52-1.88-13.06-3.87-16.86-2.91-2.32.59-8.48,4.95-10.81,6.54-5.32,3.64-10.46,7.76-15.47,11.97-.23.19-1.03,1.16-1.38.78l28.5-28.32Z"/>
        <path class="st20" d="M256.8,218.52c2.57,8.63,5.19,17.36,8.58,25.61,2.18,5.3,3.08,8.27,7.39,11.65,3.83,3,8.18,5.38,12.72,6.4l.12.04c-6.68.24-13.34-1.03-20.01-1.35-.29-.58-.4-1.05-.58-1.68-2.94-10.45-5.31-24.59-7.54-35.57-.26-1.29-1.03-4.39-1.1-5.48-.01-.19-.11-.6.19-.46.04.26.12.63.22.85Z"/>
        <path class="st20" d="M256.8,218.52c2.65,5.55,4.64,11.86,7.34,17.54,5.1,10.71,11.31,21.33,21.35,26.11-4.54-1.01-8.89-3.39-12.72-6.4-4.31-3.38-5.22-6.35-7.39-11.65-3.39-8.24-6.01-16.97-8.58-25.61Z"/>
        <path class="st20" d="M280.32,279.22c-15.07-4.73-30.84,7.02-43.66,14.93,5.01-4.21,10.15-8.32,15.47-11.97,2.32-1.59,8.49-5.95,10.81-6.54,3.79-.96,13.33,1.03,16.86,2.91.08.04.71.43.53.66Z"/>
      </g>
      <g id="Objeto_generativo4" data-name="Objeto_generativo">
        <polygon class="st17" points="235.68 183.74 371.06 235.46 337.04 359.97 201.66 308.25 235.68 183.74"/>
        <path class="st17" d="M233,251.47c3.89,1.87,8.67,2.79,12.46,4.76.15.08.47.07.43.32l42.57,30.38c-2.49,9.22-4.81,18.52-7.44,27.7-19.65-7.49-39.32-14.91-58.9-22.65,3.52-13.53,7.2-27.02,10.87-40.51Z"/>
        <path class="st17" d="M303.16,233.62l-7.77,27.72-49.93-5.11c-3.78-1.96-8.57-2.89-12.46-4.76,3.67-13.48,7.42-26.94,10.99-40.46,19.72,7.54,39.45,15.06,59.17,22.61Z"/>
        <g>
          <path class="st20" d="M303.16,233.62c15.78,6.04,31.59,12,47.34,18.16l-22.1,80.88c-15.82-5.9-31.59-12-47.38-18.02,2.62-9.17,4.95-18.48,7.44-27.7,1.16-4.3,2.66-8.51,3.59-12.9l-46.16-17.48c.03-.25-.28-.24-.43-.32l49.93,5.11,7.77-27.72Z"/>
          <path class="st20" d="M292.17,273.85l3.46-12.41c15.3,7.95,29.61,18.85,43.2,30.24l-46.65-17.82Z"/>
        </g>
        <path class="st17" d="M288.47,286.94l-42.57-30.38,46.16,17.48c-.93,4.39-2.43,8.6-3.59,12.9Z"/>
      </g>
      <g id="Objeto_generativo5" data-name="Objeto_generativo">
        <polygon class="st17" points="235.68 183.74 371.06 235.46 337.04 359.97 201.66 308.25 235.68 183.74"/>
        <path class="st17" d="M314.8,238.06c-1.06.2-1.99.67-2.86,1.44l-16.54,19.69-22.8-6.56-4.13-3.42c2.83-8.04-.32-16.02-5.98-20.86-2.22,6.35-3.37,14.09.16,20.09-.02.12-1.62.96-1.85,1.06-1,.46-.63.86-1.85.37-4.81-1.95-10-6.02-14.83-7.97-.71-.28-1.97-.86-2.46.21-.32.7.06,1.41.44,1.93l12.66,10.44c-1.73,3.02-2.72,6.53-2.65,10.19l-15.35-.11c-2.01,1.28-1.14,2.57.69,3.18,4.73,1.57,11.44,1.68,15.92,3.47.92.37.58.31,1.08,1.03.14.2,1.13,2.06,1.09,2.18-5.9,2.42-8.65,9.45-10.07,16.18,7.04-.14,13.51-4.29,15.21-12.91,2.53.21,4.37.28,6.81,1.22,6.66,2.56,13.33,6.58,19.97,9.32l4.06,27.87c.29,1.3.97,2.24,1.72,3.19-23.74-9.12-47.53-18.12-71.27-27.23l-.08-.41,22.22-80.6c23.56,9.02,47.13,17.98,70.69,27.01Z"/>
        <path class="st20" d="M295.4,259.2l16.54-19.69c.87-.77,1.8-1.24,2.86-1.44,11.88,4.55,23.75,9.19,35.7,13.49.33.53-2.69,10.05-3.05,11.42l-17.06-5.98,16.37,8.48c-4.82,17.89-9.72,35.78-14.66,53.64l-17.32-4.54,16.52,7s.16.37.14.44c-1,3.62-1.84,7.36-3.16,10.84-11.73-4.33-23.36-9.05-35.04-13.54-.76-.95-1.43-1.89-1.72-3.19l-4.06-27.87,19.01-8.77-11.07-20.27Z"/>
        <path class="st17" d="M347.45,262.97c-.22.83-.46,1.67-.68,2.5l-16.37-8.48,17.06,5.98Z"/>
        <path class="st17" d="M332.11,319.11c-.23.83-.58,1.66-.8,2.46l-16.52-7,17.32,4.54Z"/>
        <g>
          <path class="st17" d="M295.4,259.2l11.07,20.27-19.01,8.77c-6.64-2.74-13.32-6.76-19.97-9.32-2.44-.94-4.28-1.01-6.81-1.22-1.7,8.62-8.17,12.77-15.21,12.91,1.42-6.73,4.17-13.76,10.07-16.18.04-.12-.95-1.98-1.09-2.18,6.1-3.25,12.94-2.13,19.38-1.34,5.33.65,10.62,1.79,15.95,2.41.34.29-1.26,3.59-1.57,3.85-.69.59-6.71,1.22-8.11,1.66-.2.06-2,.73-1.99.85,6.92-.6,20.43-1.76,11.3-13.56-1.75-2.26-4-3.95-5.67-6.31-.36-.09.14.79.16.83,1.22,2.2,6.44,6.96,6.59,8.89.03.4-.29,3.49-.52,3.56-4.53-3.08-9.28-5.74-13.82-8.81-5.7-3.86-12.08-7.78-15.37-14.77.22-.1,1.83-.94,1.85-1.06-3.53-6-2.38-13.74-.16-20.09,5.66,4.83,8.81,12.82,5.98,20.86l4.13,3.42,22.8,6.56Z"/>
          <path class="st20" d="M262.59,231.55c.07-.27.17-.95.46-.97,4.17,4.38,7,11.63,3.93,17.92-.62-.75-2.48-.11-2.89-.34s-1.94-4.15-2.11-4.87c-.81-3.41-.31-8.41.61-11.74Z"/>
          <path class="st20" d="M246.91,288.94c1.32-4.36,3.04-8.9,6.39-11.52.35-.27,2.72-1.69,2.99-1.7.79-.03,1.79,1.62,2.79,1.68-.51,6.26-5.53,10.56-10.42,11.52-.29.06-1.74.41-1.76.02Z"/>
          <path class="st20" d="M267.09,253.06c.61-2.93,4.23-.96,4.03,1.39-.03.33-.78,2.34-.92,2.41-.78.42-3.47-2.13-3.12-3.8Z"/>
          <path class="st20" d="M261.4,273.91c.48-1.91,3.25-2,4.44-1.06,0,1.54-.43,3.44-1.96,3.62-1.29.16-2.93-.76-2.48-2.56Z"/>
        </g>
        <g>
          <path class="st20" d="M260.79,249.51c3.28,6.99,9.67,10.91,15.37,14.77,4.54,3.07,9.28,5.73,13.82,8.81.23-.07.55-3.16.52-3.56-.15-1.92-5.38-6.68-6.59-8.89-.02-.04-.52-.91-.16-.83,1.68,2.36,3.92,4.05,5.67,6.31,9.13,11.8-4.38,12.96-11.3,13.56-.02-.12,1.79-.79,1.99-.85,1.4-.44,7.42-1.07,8.11-1.66.31-.26,1.91-3.56,1.57-3.85-5.33-.62-10.62-1.76-15.95-2.41-6.44-.78-13.28-1.91-19.38,1.34-.5-.72-.16-.66-1.08-1.03-4.48-1.8-11.19-1.9-15.92-3.47-1.83-.61-2.7-1.9-.69-3.18l15.35.11c-.07-3.66.93-7.17,2.65-10.19l-12.66-10.44c-.39-.52-.76-1.24-.44-1.93.49-1.07,1.75-.5,2.46-.21,4.83,1.95,10.01,6.01,14.83,7.97,1.22.49.86.1,1.85-.37Z"/>
          <path class="st17" d="M291.09,270.21c1.71,2.19.57,5.32-1.55,6.39,1-1.85,2.03-4.12,1.55-6.39Z"/>
        </g>
      </g>
    </g>
  </g>
  <g id="Capa_3">
    <text class="st14" transform="translate(378.87 378.11) rotate(-3.64) scale(.58 1)"><tspan x="0" y="0">MAGNIFICO</tspan></text>
    <text class="st15" transform="translate(540.92 224.7) rotate(11.57) scale(.87 1)"><tspan x="0" y="0">El SHOW del</tspan></text>
    <text class="st16" transform="translate(550.22 528.78) rotate(-9.09) scale(.72 1)"><tspan x="0" y="0">SESSAR</tspan></text>
  </g>
</svg>