<?xml version="1.0" encoding="UTF-8"?>
<svg id="Capa_1" xmlns="http://www.w3.org/2000/svg" version="1.1" xmlns:xlink="http://www.w3.org/1999/xlink" viewBox="0 0 1920 1080">
  <!-- Generator: Adobe Illustrator 29.6.0, SVG Export Plug-In . SVG Version: 2.1.1 Build 207)  -->
  <defs>
    <style>
      .st0 {
        fill: url(#Motivo_generado_20);
      }

      .st1 {
        fill: #ffe8db;
      }

      .st2 {
        fill: none;
      }

      .st3 {
        fill: #f9fcfc;
      }

      .st4 {
        fill: #fded4e;
      }

      .st5 {
        fill: #fbb80f;
      }
    </style>
    <pattern id="Motivo_generado_20" data-name="Motivo generado 20" x="0" y="0" width="256" height="256" patternUnits="userSpaceOnUse" viewBox="0 0 256 256">
      <g>
        <rect class="st2" width="256" height="256"/>
        <path class="st1" d="M351.5,0c-.05,23.41-.17,46.85.25,70.25-2.37-.62-2.41-2.22-2.75-4.62-.71-.87-7.17,4.11-7.75,5.25-.65,1.27-.31,2.89-.5,3.25-.15.29-1.9.51-2.38.88-1.47,1.14-2.18,3.37-3.12,4.38-3.25,3.48-5.92,3.37-5.5,9.25.03.4,1.02,2.13,1,2.25-.05.37-3.42,2.84-3.5,6.25-.07,2.88,9.05,19.58,11.25,22,2.38,2.61,9.59,2.77,13,2.62v76.5c-2.42-.61-2.75-2.12-3-4.62l-.62-.38c-3.04,2.14-6.98,3.84-8.12,7.62-.14.46.43.87.25,1.25-.05.11-1.98.58-2.38.88-1.07.8-2.26,2.74-3.12,3.88-.02.03.52.47.5.5-.88,1.2-4.45,2.62-5.25,4.5-1.43,3.34.6,6.74.5,7.25-.03.16-2.1,1.62-2.5,2.25-1.75,2.71-1.37,5.67-.25,8.5.77,1.95,10.37,18.29,11.38,18.88,2.62,1.53,9.54,1.49,12.62,1.25.04,1.98,0,4.01,0,6h-127.75v-5.75c5.18-.19,16.94-2.78,18.25-8.62.76-3.38,2.86-20.29,2.25-23-.96-4.29-4.71-4.68-5.5-6.25-.13-.25.13-1.29,0-1.5-.93-1.52-4.2-5.43-5.62-6.38-.67-.44-2.19-.53-2.5-.75-.7-.49-1.04-3.78-3-4.75-1.4-.69-2.7-.24-3.88-.5l-.25-76.5c3.8-.18,14.85-2.51,17-5.88.69-1.08,3.96-19.87,4-22,.04-1.86-.3-4.4-1.25-6-.85-1.43-3.97-3.01-4.25-3.5-.07-.12-.12-1.8-.25-2-.77-1.25-4.02-5.12-5.12-5.88-.82-.56-2.85-.89-3-1-.45-.33-1.02-3.5-2.5-4.5-1.59-1.07-2.81-.45-4.38-.75V0h127.75ZM288.38.5c-.36,0-6,2.62-6.5,3-1.06.82-2.43,3.61-2.75,3.75-.16.07-1.95-.15-3.25.5-1.45.73-2.66,2.78-4,3.75-2.06,1.48-5.18,1.75-6.38,4.88-.52,1.36-.24,3.57-.5,4.25-.08.21-2.81,1.76-3.5,2.75-1.05,1.49-1.54,3.43-1.5,5.25.06,2.59,2.45,19.56,3.25,21.5,2.6,6.28,23.53,9.21,28.88,5.88,1.48-.93,11.08-18.43,11.62-20.62.63-2.54.41-4.72-.75-7-.22-.43-1.67-1.44-1.75-1.75-.31-1.13.49-3.27-.25-5.25-.49-1.33-1.84-1.95-2.25-2.75-.21-.4-.14-2.19-.75-3.25-.72-1.26-3.41-2.3-3.5-2.5-.21-.49.17-2.3,0-3-.74-3-8.96-2.98-5.25-9.25-.16-.22-.63-.13-.88-.12ZM288.88,128.5c-3.08,1.34-5.98,2.17-8.38,4.62-.29.29-.99,2.06-1.12,2.12-.34.15-2.31.09-3.25.5-1.35.58-2.99,3.08-4.25,4-2.05,1.49-5.15,1.66-6.38,4.88-.52,1.36-.24,3.57-.5,4.25-.08.22-3.03,1.85-3.75,3-.88,1.4-1.3,3.59-1.25,5.25.09,2.83,2.2,19.01,3,21.25,2.22,6.26,23.99,9.08,29.12,5.88,1.36-.85,11.07-18.51,11.62-20.62.81-3.1.42-4.8-1-7.5-.26-.5-1.46-1.16-1.5-1.25-.28-.72.38-3.54-.25-5.25-.49-1.32-1.88-2-2.25-2.75-.24-.49-.03-2.31-.75-3.5-.64-1.05-3.38-2.2-3.5-2.5-.33-.88.38-2.29-.5-3.75-1.18-1.95-5.04-1.55-5.5-4.5-.18-1.14.95-3.99.38-4.12Z"/>
        <g>
          <path class="st4" d="M223.75,0v70.5c-3.35-.65-2.2-4.93-3.38-5-2.27,1.36-6.9,3.86-7.88,6.38-.17.44.17,1.9,0,2.25-.12.25-1.78.59-2.12.88-1.71,1.41-2.33,3.5-3.12,4.38-3.67,4.01-5.86,3.04-5.5,9.75.01.2.92,1.45.75,2-.05.14-1.86,1.4-2.25,2-1.38,2.1-1.62,5.08-1,7.5.29,1.11,9.76,17.39,10.75,18.5,2.49,2.82,9.88,3.05,13.5,2.88l.25,76.5c-2.76-.61-2.29-2.94-3.38-5-.54-.17-7.11,4.61-7.62,5.62-.61,1.2-.32,2.64-.5,3-.13.26-1.78.58-2.12.88-1.59,1.34-2.25,3.42-3.12,4.38-3.81,4.14-5.71,2.92-5.5,9.75,0,.1.82,1.37.75,1.75-.03.18-2.15,2.03-2.5,2.75-1,2.08-.96,5.05-.25,7.25.52,1.61,9.72,16.79,11,18.25,2.53,2.89,9.52,3.26,13.25,3.12v5.75H95.5c0-1.99.04-4.02,0-6,3.58-.28,14.6-2.59,16.5-5.88.58-1,3.95-20.78,4-22.75.17-6.84-2.96-5.58-5.25-9-1.54-2.31-2.25-5.8-5.38-7.88-.88-.58-2.53-.67-3-1-.75-.53-.58-2.03-1.12-2.88-1.63-2.5-3.42-1.78-5.75-2.38v-76.5c3.95-.17,16.09-2.61,17.75-6.62.63-1.54,3.15-18.22,3.25-20.5.07-1.55.02-4.31-.5-5.75-.88-2.4-3.84-3.39-5-5-1.75-2.44-2.65-5.58-5.88-7.62-.55-.35-2.48-.45-2.75-.75-.1-.11-.46-2.2-.88-2.88-1.38-2.2-3.65-1.83-5.75-2.38-.42-23.4-.3-46.84-.25-70.25h128.25ZM165.38.5c-.4-.02-5.42,2.11-6,2.5-1.34.9-3.25,3.91-3.5,4-.75.26-1.93-.08-3.25.5-1.51.66-2.61,2.93-3.75,3.75-2.43,1.75-5.52,1.6-6.88,5.38-.51,1.41-.19,3.81-.25,4-.13.41-1.52.58-1.88.88-1.37,1.16-3.56,3.6-3.88,5.38-.43,2.43,2.65,20.61,3.75,23,2.83,6.16,24.79,9.38,30.12,5.88.95-.62,1.75-2.16,2.38-3.12,2.78-4.26,10.05-17.59,9-22.25-.46-2.06-3.07-3.91-3.25-4.5-.36-1.21.45-2.94-.5-5-.45-.97-1.92-2.08-2-2.25-.27-.59.06-2.17-.75-3.5-.72-1.18-3.35-2.15-3.5-2.5-.27-.65.4-2.22-.25-3.5-1.28-2.49-8.54-2.47-5-8.25-.21-.23-.28-.36-.62-.38ZM164.88,128.75c-.31.02-5.29,2.19-5.75,2.5-1.35.89-3.25,3.92-3.5,4-1.2.4-2.24-.11-4,1-1.12.71-1.96,2.48-3,3.25-2.2,1.62-5.86,1.95-6.88,5.38-.38,1.27,0,3.36-.25,4-.15.39-4.85,2.36-5.5,6-.46,2.57,2.76,21.38,4,23.75,3.02,5.78,24.98,9.02,30.12,5.12,1.17-.88,10.49-18.53,10.88-20.38.57-2.77.2-4.92-1.25-7.25-.39-.63-1.88-1.41-2-1.75-.21-.61.22-2.99,0-4-.39-1.82-2.18-2.66-2.5-3.5-.18-.47.09-1.84-.25-2.75-.65-1.73-3.9-3.01-4-3.25-.23-.58.42-1.5.25-2.25-.9-4.03-8.77-3.26-5.5-9.75-.16-.21-.62-.14-.88-.12Z"/>
          <path class="st1" d="M95.5,0c-.05,23.41-.17,46.85.25,70.25-2.37-.62-2.41-2.22-2.75-4.62-.71-.87-7.17,4.11-7.75,5.25-.65,1.27-.31,2.89-.5,3.25-.15.29-1.9.51-2.38.88-1.47,1.14-2.18,3.37-3.12,4.38-3.25,3.48-5.92,3.37-5.5,9.25.03.4,1.02,2.13,1,2.25-.05.37-3.42,2.84-3.5,6.25-.07,2.88,9.05,19.58,11.25,22,2.38,2.61,9.59,2.77,13,2.62v76.5c-2.42-.61-2.75-2.12-3-4.62l-.62-.38c-3.04,2.14-6.98,3.84-8.12,7.62-.14.46.43.87.25,1.25-.05.11-1.98.58-2.38.88-1.07.8-2.26,2.74-3.12,3.88-.02.03.52.47.5.5-.88,1.2-4.45,2.62-5.25,4.5-1.43,3.34.6,6.74.5,7.25-.03.16-2.1,1.62-2.5,2.25-1.75,2.71-1.37,5.67-.25,8.5.77,1.95,10.37,18.29,11.38,18.88,2.62,1.53,9.54,1.49,12.62,1.25.04,1.98,0,4.01,0,6H-32.25v-5.75c5.18-.19,16.94-2.78,18.25-8.62.76-3.38,2.86-20.29,2.25-23-.96-4.29-4.71-4.68-5.5-6.25-.13-.25.13-1.29,0-1.5-.93-1.52-4.2-5.43-5.62-6.38-.67-.44-2.19-.53-2.5-.75-.7-.49-1.04-3.78-3-4.75-1.4-.69-2.7-.24-3.88-.5l-.25-76.5c3.8-.18,14.85-2.51,17-5.88.69-1.08,3.96-19.87,4-22,.04-1.86-.3-4.4-1.25-6-.85-1.43-3.97-3.01-4.25-3.5-.07-.12-.12-1.8-.25-2-.77-1.25-4.02-5.12-5.12-5.88-.82-.56-2.85-.89-3-1-.45-.33-1.02-3.5-2.5-4.5-1.59-1.07-2.81-.45-4.38-.75V0h127.75ZM32.37.5c-.36,0-6,2.62-6.5,3-1.06.82-2.43,3.61-2.75,3.75-.16.07-1.95-.15-3.25.5-1.45.73-2.66,2.78-4,3.75-2.06,1.48-5.18,1.75-6.38,4.88-.52,1.36-.24,3.57-.5,4.25-.08.21-2.81,1.76-3.5,2.75-1.05,1.49-1.54,3.43-1.5,5.25.06,2.59,2.45,19.56,3.25,21.5,2.6,6.28,23.53,9.21,28.88,5.88,1.48-.93,11.08-18.43,11.62-20.62.63-2.54.41-4.72-.75-7-.22-.43-1.67-1.44-1.75-1.75-.31-1.13.49-3.27-.25-5.25-.49-1.33-1.84-1.95-2.25-2.75-.21-.4-.14-2.19-.75-3.25-.72-1.26-3.41-2.3-3.5-2.5-.21-.49.17-2.3,0-3-.74-3-8.96-2.98-5.25-9.25-.16-.22-.63-.13-.88-.12ZM32.87,128.5c-3.08,1.34-5.98,2.17-8.38,4.62-.29.29-.99,2.06-1.12,2.12-.34.15-2.31.09-3.25.5-1.35.58-2.99,3.08-4.25,4-2.05,1.49-5.15,1.66-6.38,4.88-.52,1.36-.24,3.57-.5,4.25-.08.22-3.03,1.85-3.75,3-.88,1.4-1.3,3.59-1.25,5.25.09,2.83,2.2,19.01,3,21.25,2.22,6.26,23.99,9.08,29.12,5.88,1.36-.85,11.07-18.51,11.62-20.62.81-3.1.42-4.8-1-7.5-.26-.5-1.46-1.16-1.5-1.25-.28-.72.38-3.54-.25-5.25-.49-1.32-1.88-2-2.25-2.75-.24-.49-.03-2.31-.75-3.5-.64-1.05-3.38-2.2-3.5-2.5-.33-.88.38-2.29-.5-3.75-1.18-1.95-5.04-1.55-5.5-4.5-.18-1.14.95-3.99.38-4.12Z"/>
          <path class="st3" d="M223.75,70.5c1.56.3,2.79-.32,4.38.75,1.48,1,2.05,4.17,2.5,4.5.15.11,2.18.44,3,1,1.11.75,4.35,4.63,5.12,5.88.13.2.18,1.88.25,2,.28.49,3.4,2.07,4.25,3.5.95,1.6,1.29,4.14,1.25,6-.04,2.13-3.31,20.92-4,22-2.15,3.36-13.2,5.69-17,5.88s-11.01-.06-13.5-2.88c-.99-1.11-10.46-17.39-10.75-18.5-.62-2.42-.38-5.4,1-7.5.39-.6,2.2-1.86,2.25-2,.17-.55-.74-1.8-.75-2-.36-6.71,1.83-5.74,5.5-9.75.8-.87,1.42-2.96,3.12-4.38.35-.29,2-.62,2.12-.88.17-.35-.17-1.81,0-2.25.97-2.51,5.61-5.01,7.88-6.38,1.18.07.02,4.35,3.38,5ZM219.88,66.75c-1.47,2.73,1.51,4.75,3.75,5.5,1.05.35,3.7-.52,3.88,1.62-4.08,1.84-9.66-.87-10.12-5.62-3.37,2.5,3.04,6.92,5.5,7.25.92.12,5.75-.18,6.12-.88.31-.57-.84-2.29-1.38-2.62-1.64-1.02-3.42.43-5.5-1-1.36-.94-1.52-2.96-2.25-4.25ZM214.38,70.75c-3.14,3.33,1.45,6.04,4.5,6.75-2.1-1.66-4.07-2.59-4.88-5.38l.38-1.38ZM235.5,80.25c-3.99-5.06-4.11-2.18-9.38-1.75-2.82.23-7.63-.13-10.25-1.25-2.12-.91-2.73-3.37-5-1.75-2.76,1.97-.22,5.97,2,7.25,3.24,1.87,10.97,1.95,14.75,1.75,1.92-.1,8.26-.23,8.62-2.88.21-1.57-.62-1.21-.75-1.38ZM206.88,80.5c-2.88,6.3,9.34,8.21,13.5,8.5,4.92.34,9.89-.66,14.62-.38-5.51,3.95-25.17,2.86-28.75-3-.4-.66-.54-3.12-1.38-3.12-5.59,5.3-.72,10.68,5.5,12,5.3,1.12,12.54.19,17.75-1.25,3.33-.92,11.8-3.38,10.25-8-1.59,6.59-13.21,8.32-19,8.5s-19.55-1.6-14.75-10.5c1.99,11.08,29.21,11.45,32.88,3.12.63-1.43.58-3.3-.5-4.5.41,2.67.12,4.9-2.88,5.62-6.55,1.59-23.98.4-27.25-7ZM239.38,85.75c.62,4.61-5.69,6.83-9.25,8-8.53,2.81-20.12,4.6-27.25-2-1.88,1.1-4.01,5.84-2.88,7.62.18.28,5.79,2.61,6.12,2.62.84.04,2.27-1.32,2.75-1.25.22.03,1.5,1.69,1.75,1.75,1.39.32,2.27-1.65,2.75-1.75.87-.18,2.23,1.46,2.75,1.5,1.22.11,1.25-1.6,1.75-1.75.7-.21,1.58.95,2,1,1.14.14,1.93-1.19,2.5-1.25.71-.07,2.34,1.06,2.75,1,.38-.05,1.62-1.97,1.75-2,.35-.07,1.72,1.43,2.75.75.59-.39.48-1.82,1-2,.27-.09,3.92,1.42,4.5,1.25.63-.18,1.05-2.85,1.5-3,.32-.11,2.88.91,3.5.75.38-.1,1.57-2.2,2-2.75.06-.07,1.31-.46,1.38-.62.97-2.24-1.74-7.03-4.12-7.88ZM242.88,94.5c-1.08.66-.97,2.9-2.25,3.25-1.41.38-3.34-.82-3.5-.75-.2.08-.62,2.74-1.25,3-1.06.45-4.44-1.11-4.75-1-.18.07-.59,1.59-1,1.75-.77.3-2.61-.35-3-.25s-.7,1.14-1,1.25c-1.15.43-2.54-.72-3.75-.5-.62.11-1,1.11-2.25,1-.28-.02-1.14-.9-1.75-.75-.4.1-.71,1.15-1,1.25-1.45.51-3.03-1.08-3.75-1-.2.02-1.58,1.41-2,1.5-1.98.42-2.52-1.43-2.75-1.5-.65-.2-1.19.88-1.75,1-1.2.25-6.63-2.58-6.88-2.12,2.53,3.61,4.21,7.77,6.5,11.5.7,1.14,4.49,7.25,5.12,7.62,4.61,2.74,25.45.81,28.12-4.38.44-.86,3.18-17.23,3.25-19,.01-.37.14-1.8-.38-1.88Z"/>
          <path class="st3" d="M223.75,198.5c1.17.26,2.48-.19,3.88.5,1.96.97,2.3,4.26,3,4.75.31.22,1.83.31,2.5.75,1.43.95,4.69,4.85,5.62,6.38.13.21-.13,1.25,0,1.5.79,1.57,4.54,1.96,5.5,6.25.61,2.71-1.49,19.62-2.25,23-1.31,5.84-13.07,8.43-18.25,8.62-3.73.14-10.72-.24-13.25-3.12-1.28-1.46-10.48-16.64-11-18.25-.71-2.2-.75-5.17.25-7.25.35-.72,2.47-2.57,2.5-2.75.07-.38-.75-1.65-.75-1.75-.21-6.83,1.69-5.61,5.5-9.75.88-.95,1.54-3.03,3.12-4.38.34-.29,2-.62,2.12-.88.18-.36-.11-1.8.5-3,.51-1.02,7.09-5.79,7.62-5.62,1.09,2.06.61,4.39,3.38,5ZM219.88,194.75c-1.53,2.4,1.29,4.75,3.5,5.5.37.13,4.71-.06,4.12,1.62-.86,2.46-11.59-1.11-9.88-5.62-4.14,1.96,2.46,6.86,5,7.25,1.61.25,7.14.19,6.12-2.12-1.23-2.81-4.54-.93-6.62-2.38-1.16-.81-1.79-2.98-2.25-4.25ZM214.38,198.5c-3.17,3.59.57,5.72,3.75,7-1.92-2.18-5-3.51-3.75-7ZM212.12,202.75c-2.19-.04-3.12,2.95-2.38,4.88,2.25,5.81,20.77,6.09,24.88,3.88,3.64-1.96-.42-4.36-2-6.25-5.3,1.02-11,2.19-16.25.25-1.05-.39-4-2.75-4.25-2.75ZM206.62,208.5c-2.32,3.74,3.08,6.4,6,7.25,7.15,2.09,15.07,1.06,22.38.62-5.58,4.37-25.14,3.18-29-2.75-.38-.58-.86-3.13-1.38-3.12-3.84,3-2.78,8.19,1.25,10.5,5.68,3.26,15.89,1.91,22,.25,3.36-.91,12.25-3.28,10.25-8,0,2.06-1.43,3.42-3,4.5-5.97,4.1-23.38,5.68-29.25,1.25-2.29-1.73-3.69-5.05-1.75-7.5,3,10.33,26.96,11.1,32.38,4.12,1.71-2.2,1.76-4.08.12-6.38,2.14,6.57-3.75,6.62-8.5,6.75-6.56.18-18.25-.89-21.5-7.5ZM239.62,214c-.65,4.68-5.55,6.44-9.5,7.75-8.11,2.68-20.71,4.74-27.25-2-2.17.9-3.83,5.42-2.88,7.38.42.86,5.55,2.85,6.38,2.88,1.03.03,2.11-1.42,3-1.25.24.05,1.49,1.69,1.75,1.75,1.39.31,2.27-1.65,2.75-1.75.85-.18,2.22,1.58,3.25,1.25.32-.1.96-1.69,1.25-1.75.37-.08,1.23,1.37,2.75,1,.14-.03.85-.94,1.25-1,.98-.15,2.21,1.06,3.25.75.49-.14.87-1.44,1-1.5.72-.33,1.62,1.12,2.75.75.7-.23.81-1.9,1-2,.51-.27,4.29,1.32,5,1,.42-.19.81-2.84,1.5-3,.23-.05,2.69,1.07,3.5.75.39-.15,1.03-1.93,1.38-2.38.38-.48,1.58-.73,1.75-1.25.81-2.44-1.65-6.29-3.88-7.38ZM243.12,222.5c-1.42.47-1.09,2.9-2.5,3.25-.9.23-3.26-.61-3.5-.5-.22.11-.48,2.46-1.25,2.75-1.28.48-4.2-1.06-4.5-1-.52.1-.61,1.43-1.25,1.75-.73.37-2.73-.32-3-.25-.21.06-.84,1.4-1.25,1.5-.28.07-2.52-.81-3.5-.75-.06,0-.75.72-1,.75-1.44.16-2.6-.78-2.75-.75-.18.03-.76,1.38-1.5,1.5-1.09.17-2.15-1.12-3-1-.33.05-1.45,1.4-2,1.5-1.98.36-2.54-1.43-3-1.5s-1.65,1.05-2.75,1c-.17,0-3.08-.69-3.25-.75-.13-.04-2.03-1.63-2.25-1.5-.2.14-.14.4-.12.62.07,1.1,10.7,18.03,11.62,18.62,4.88,3.11,20.93.94,25.75-2.25,4.14-2.75,3.59-11.53,4.12-16.12.07-.57,1.76-6.74.88-6.88Z"/>
          <path class="st3" d="M164.88,128.75c.25-.02.72-.08.88.12-3.27,6.49,4.6,5.72,5.5,9.75.17.75-.48,1.67-.25,2.25.1.24,3.35,1.52,4,3.25.34.91.07,2.28.25,2.75.32.84,2.11,1.68,2.5,3.5.22,1.01-.21,3.39,0,4,.12.34,1.61,1.12,2,1.75,1.45,2.33,1.82,4.48,1.25,7.25-.38,1.85-9.71,19.49-10.88,20.38-5.14,3.9-27.1.66-30.12-5.12-1.24-2.37-4.46-21.18-4-23.75.65-3.64,5.35-5.61,5.5-6,.25-.64-.13-2.73.25-4,1.01-3.43,4.68-3.75,6.88-5.38,1.04-.77,1.88-2.54,3-3.25,1.76-1.11,2.8-.6,4-1,.25-.08,2.15-3.11,3.5-4,.46-.31,5.44-2.48,5.75-2.5ZM164.12,130c-3.7,3.6,4.79,7.6,4.88,8.38.25,2.33-5.31-.22-6.5-2s-1.41-3.41-.38-5.38c-1.5.78-3.61,1.25-4.38,2.88l2.12-1.38c-.94,4.07,6.05,9.99,9.5,7.25,2.98-2.36-3.72-3.97-4.62-5.62-.8-1.46-.2-2.75-.62-4.12ZM153.88,136c-1.69.24-3.52,2.87-3.38,4.62.52,6.31,18.15,10.27,23,7.5-7.39.74-18.65.08-22.12-7.62l.25-.75c4.22,3.47,9.1,5.66,14.5,6.5,1.1-.35,7.89.96,8.12.62.41-.57.22-1.64,0-2.25-1.1-3.02-5.55-1.56-8.12-1.88-2.8-.34-6.36-1.35-8.5-3.25-1.62-1.43-1.86-3.77-3.75-3.5ZM148.12,140.5c-3.15,3.01,1.31,6.92,4,8.5,4.43,2.61,13.2,4.99,18.25,4,1.69-.33,7.41-3,4.75-5-2.34,8.76-23.54.89-26.12-3.62-.83-1.45-.67-2.31-.88-3.88ZM146.38,141.5c-5.76,2.77-5,8.75-.25,12.25,5.24,3.86,28.55,8.76,30.88.38.05-.18.48-1.7-.12-1.62-.19.85-.58,1.45-1.25,2-5.61,4.56-27.84-1.94-29.38-9.62-.21-1.07.2-2.33.12-3.38ZM141.38,150c-2.63,1.24-4.23,3.48-4.62,6.38,1.24.43,3.64,3.97,4.38,4.12.89.19,3.09-.55,3.25-.5.73.22.57,1.51.88,1.88,1.82,2.16,3.82-.37,4.88-.12.86.2.83,2.97,2.75,2.5.17-.04,1.1-1.25,1.5-1.25.61,0,1.4,1.41,1.75,1.5.94.24,2.61-.84,3-.75.5.11,1.06,2.18,2,2.25.86.06,1.7-1.56,2.25-1.5.41.04,1.17,1.94,2.5,1.5.3-.1.81-1.57,1.5-1.5.21.02,2.25,2.36,3.5,2,.4-.12,1.15-1.72,1.25-1.75.51-.17,2.22,1.05,3,1,.47-.03,1.69-1.01,2.25-1.25.85-.36,1.87.69,2.62-1.12.96-2.29,0-6.61-2.38-7.88-5.1,7.1-20.69,4.36-27.75,1.5-3.81-1.54-6.12-3.72-8.5-7ZM137.12,157.75c-.46.37,1.34,10.3,1.62,11.62.33,1.55,1.74,8.02,2.25,9,2,3.86,17.43,6.61,22.12,6.38,1.03-.05,5.32-.81,6-1.25l10.12-18.12c-1.43-.88-2.54.97-3.38,1.12-1.22.23-2.83-.89-3.25-.75-.39.13-.5,1.89-2.75,1.5-.5-.09-2.12-1.48-2.25-1.5-.72-.09-1.48,1.22-2.75,1-.48-.08-1.4-1.25-1.5-1.25s-1.02,1.16-1.5,1.25c-1.97.36-2.49-1.9-3-2-.18-.04-1.83.79-3,.5-.27-.07-1.4-1.25-1.5-1.25-.13,0-.95,1.16-2.25,1-1.44-.18-1.85-2.19-2-2.25-.51-.21-3.24,1.99-5.38-.12-.19-.18-.35-1.49-.62-1.62-.28-.14-2.63.6-3,.5-1.5-.4-2.35-3.34-4-3.75Z"/>
          <path class="st3" d="M165.38.5c.34.02.42.14.62.38-3.54,5.78,3.72,5.76,5,8.25.65,1.28-.02,2.85.25,3.5.15.35,2.78,1.32,3.5,2.5.81,1.33.48,2.91.75,3.5.08.17,1.55,1.28,2,2.25.95,2.06.14,3.79.5,5,.18.59,2.79,2.44,3.25,4.5,1.05,4.66-6.22,17.99-9,22.25-.63.96-1.43,2.5-2.38,3.12-5.34,3.51-27.29.29-30.12-5.88-1.1-2.39-4.18-20.57-3.75-23,.31-1.78,2.5-4.22,3.88-5.38.35-.3,1.74-.46,1.88-.88.06-.19-.26-2.59.25-4,1.36-3.78,4.45-3.63,6.88-5.38,1.14-.82,2.24-3.09,3.75-3.75,1.32-.58,2.5-.24,3.25-.5.25-.09,2.16-3.1,3.5-4,.58-.39,5.6-2.52,6-2.5ZM164.12,2c-1.76,4.14,2.21,5.94,4.88,7.88.62,1.53-2.12,1.09-2.88.88-2.83-.8-5.82-5.16-4-8l-4.12,2.62,1.88-1.12c-.25,4.33,5.7,9.92,9.75,7.25,3.26-2.15-3.79-4.02-4.62-5.38-.76-1.23-.36-2.91-.88-4.12ZM153.88,7.75c-1.92.38-3.58,3.4-3.12,5.38,1.22,5.33,18.51,9.88,23,6.75-7.35.9-19.26.09-22.25-8,.25-1.04,4.51,2.66,5.38,3.12,5.16,2.77,9.36,2.89,15,3.25.72.05,2.1,1.17,2.62.38.78-5.86-5.07-3.69-8.62-4.12-2.43-.3-6.43-1.79-8.25-3.5-1.61-1.52-1.68-3.65-3.75-3.25ZM148.38,12c-2.67,2.32-.11,5.75,2,7.5,3.8,3.16,14.14,6.02,19,5.5,1.97-.21,8.94-3.06,6-5.25-2.61,8.03-19.58,2.1-24-1.5-2.09-1.7-3.17-3.5-3-6.25ZM146.38,13.25c-8.09,5.12-2.38,11.94,4.25,14.5,5.56,2.15,24.23,5.73,26.62-1.88.04-.13.48-1.72-.12-1.62-1.02,3.38-5.12,3.94-8.25,3.75-6.56-.4-21.37-4.7-22.62-12.38-.11-.67.69-2.33.12-2.38ZM141.62,21.75c-2.57,1.15-4.81,3.75-4.62,6.62,1.3.29,3.3,3.7,3.88,3.88,1.02.31,3.03-.55,3.75-.25.42.17.9,2.26,1.75,2.5,1.21.33,3.23-1.27,4-1,.38.13.88,2.86,2.5,2.5.43-.09.98-1.6,2-1.25.1.03.92,1.39,1.5,1.5.91.18,2.45-.81,2.75-.75.37.07,1.62,2.22,2,2.25.28.02,1.75-1.53,2.25-1.5.65.04,1.12,1.39,1.5,1.5,1.33.38,1.9-1.45,2.25-1.5.44-.06,2.87,2.28,3.5,2.25.96-.05,1.37-1.88,1.75-2,.49-.15,2.24,1.08,3,1,.51-.05,1.5-1.15,1.75-1.25.33-.13,2-.12,2.25-.25,2.04-1.03,1.22-7.89-1.5-8.75-4.78,6.81-17.8,4.6-24.75,2.5-4.83-1.46-8.82-3.58-11.5-8ZM137.12,29.25c-.43.32,1.14,9.42,1.38,10.62.34,1.75,1.88,9.11,2.5,10.25.5.91,2.67,2.14,3.62,2.62,3.66,1.84,14.1,4.03,18.25,3.75,1.08-.07,5.18-.59,6-1,2.54-1.28,8.26-15.71,10.62-18.62-1.39-.77-2.73,1.24-3.62,1.38-.98.15-2.72-.83-3-.75-.37.1-.9,2.38-3.25,1.5-.32-.12-1.83-1.48-2-1.5-.72-.09-1.48,1.22-2.75,1-.46-.08-1.37-1.24-1.5-1.25-.14,0-1.79,1.38-2.5,1.25-.23-.04-1.78-1.97-2-2-.14-.02-1.64.75-2.75.5-.72-.16-1.15-1.38-2-1.25-.23.03-.81,1.19-2,1-1.06-.17-1.86-2.2-2-2.25-.37-.14-2.79,1.18-4.25.75-.88-.26-1.26-2.22-1.75-2.5-.17-.09-2.39.71-3.75,0-1.01-.53-1.89-2.92-3.25-3.5Z"/>
          <path class="st3" d="M95.5,198.25c2.33.59,4.12-.12,5.75,2.38.55.84.38,2.35,1.12,2.88.47.33,2.12.42,3,1,3.12,2.07,3.83,5.56,5.38,7.88,2.29,3.42,5.42,2.16,5.25,9-.05,1.97-3.42,21.75-4,22.75-1.9,3.28-12.92,5.6-16.5,5.88-3.09.24-10.01.28-12.62-1.25-1-.58-10.61-16.93-11.38-18.88-1.12-2.83-1.5-5.79.25-8.5.4-.63,2.47-2.09,2.5-2.25.1-.51-1.93-3.91-.5-7.25.8-1.88,4.37-3.3,5.25-4.5.02-.03-.52-.47-.5-.5.87-1.14,2.06-3.07,3.12-3.88.39-.29,2.32-.76,2.38-.88.18-.38-.39-.79-.25-1.25,1.15-3.79,5.09-5.49,8.12-7.62l.62.38c.25,2.51.58,4.01,3,4.62ZM91.62,194.5c-1.82,2.01,1.26,5.02,3.25,5.5.58-.28,4.57.61,4.38,1.62-3.75,2.04-10.17-.67-10.12-5.62-3.72,2.84,2.99,7.15,5.75,7.5,1.62.2,6.63-.02,5.62-2.38s-3.85-1.27-5.38-1.62c-1.97-.46-3.1-3.16-3.5-5ZM86.12,198.25c-3.15,3.37.42,6.04,3.75,7-.96-1.08-3.02-2.24-3.62-3.62-.1-.22-.49-1.18-.5-1.25-.09-.86.73-1.57.38-2.12ZM83.37,202.75c-1.4.18-2.55,2.27-2.38,3.62.9,6.8,16.93,6.45,21.88,5.88,1.89-.22,4.51-.85,5.25-2.75,1.6,2.13.43,5.43-2.25,6-6.04,1.29-21.68-.16-26.12-4.88-.42-.44-1.4-3.61-2-1.25-2.04,8.11,21.31,7.67,25.62,7.38.18-.01,3.32-1.27,2.88-.12-.39,1-5.77,2.02-6.88,2.12-5.99.56-17.77-.18-21.62-5.38-.45-.61-.77-2.94-1.62-2.88-3.4,2.92-2.48,7.9,1,10.25,6.34,4.28,21.05,1.65,27.75-1.25,2.96-1.28,6.31-2.9,5.25-6.75-.36,2.13-1.18,3.89-3.38,4.62,4.38-4.71,3.37-6.48-.75-10.25-.82-.75-.1-2.17-2.62-2.12-5.71.11-8.3,3.13-15.5.25-1.37-.55-3.44-2.64-4.5-2.5ZM110.88,213.5c1.47,4.21-4.94,6.62-8,7.75-6.61,2.43-18.22,4.25-24.75,1.25-2.22-1.02-2.97-3.72-5.12-1.38-1.31,1.42-1.69,4.13-1.5,6,3.2,1.86,6.36,3.53,9.88,1.88,1.89,3.48,3.1.19,4.25,0s2.39,1.37,3,1.25.89-1.93,1.25-2c.19-.04,1.19,1.42,2.5,1.25.29-.04,1.18-.94,1.5-1,1.33-.25,2.55.82,3.5.5.42-.14.87-1.41,1.25-1.5.4-.09,1.82.87,2.25.75.52-.14.84-2.1,1.25-2.25.49-.18,3.99,1.49,4.75,1.25.7-.22.65-2.79,1.5-3,2.64-.66,1.77,2.73,5.12-1.88.16-.22,1.32-.47,1.5-1,.92-2.75-1.8-6.52-4.12-7.88ZM74.25,229.5c-.07-.1-1.9-1.5-2.25-.88.81,1.55,1.67,3.08,2.5,4.62,1.07,1.99,7.95,14.22,8.88,14.75,5.29,3.04,23.35.64,27.88-4.38l3.5-20.5c-.45-1.35-1.96,2.24-2.38,2.38-1.12.38-3.33-.56-3.5-.5-.53.18-.41,1.57-.62,1.88-1.87,2.62-5.26-.27-5.63-.12-.18.07-.29,1.73-1,2-1,.37-2.61-.53-2.75-.5-.1.02-.76,1.3-1.25,1.5-1.3.52-1.94-.49-2.25-.5-1.33-.03-1.87.74-2,.75-.74.06-3.1-.3-3.25-.25-.27.09-.58,1.16-1.25,1.25-.54.07-2.6-1.26-2.75-1.25-.46.02-1.78,1.88-3.25,1.75-.87-.08-2.01-1.74-2.25-1.75-.09,0-1.13.95-1.5,1-1.75.25-3.05-1.48-4.88-1.25Z"/>
          <path class="st3" d="M95.75,70.25c2.1.55,4.37.17,5.75,2.38.42.67.77,2.76.88,2.88.27.3,2.2.4,2.75.75,3.23,2.05,4.12,5.19,5.88,7.62,1.16,1.61,4.12,2.6,5,5,.52,1.44.57,4.2.5,5.75-.1,2.28-2.62,18.96-3.25,20.5-1.66,4.02-13.8,6.46-17.75,6.62-3.41.15-10.62-.01-13-2.62-2.2-2.42-11.32-19.12-11.25-22,.08-3.41,3.45-5.88,3.5-6.25.02-.12-.97-1.85-1-2.25-.42-5.88,2.25-5.77,5.5-9.25.94-1.01,1.66-3.24,3.12-4.38.48-.37,2.23-.59,2.38-.88.19-.36-.15-1.98.5-3.25.58-1.14,7.04-6.12,7.75-5.25.34,2.4.38,4.01,2.75,4.62ZM92.12,66.5c-1.73,1.2.49,4.31,1.75,5,2.06,1.13,4.82-.04,5.88,2.38-4.28,1.6-10.02-.8-10.12-5.88-3.6,2.64,2.57,7.1,5.25,7.5,1.58.23,7.01.16,5.88-2.38s-5.87.23-8-4.25c-.24-.5-.13-2.3-.62-2.38ZM86.87,70.25c-3.49,3.42.63,6.42,4,7.25-1.1-1.17-3.46-2.28-4.12-3.88-.2-.48-.11-1.35-.5-1.75l.62-1.62ZM84.62,74.75c-1.8-.13-3.3,2.39-2.88,4.12,1.6,6.57,17.06,6.17,22.12,5.38,1.73-.27,4.16-1,4.5-3,1.9,2.45.66,5.57-2.25,6.25-5.85,1.38-21.8.06-25.88-4.88-.27-.33-1.53-3.94-2-1-1.16,7.27,17.91,7.54,22.12,7.38.52-.02,6.66-1.19,6.62-.38-6.37,3.89-24.54,3.09-28.75-3.5-.38-.6-.72-1.76-.75-2.5l-.62-.12c-5.07,4.64-1.35,10.2,4.25,11.75,6.67,1.84,17.38.19,23.75-2.5,2.78-1.18,7.36-3.27,5.5-7,.09,1.97-1.32,3.94-3.12,4.62,4.3-5.5,3.2-6.46-1.25-10.5-.07-.06-.37-1.44-.88-1.62-1.37-.49-5.34,1.11-7,1.25-2.83.25-7.38-.11-10-1.25-.91-.39-3.24-2.48-3.5-2.5ZM111.38,85.25c1.39,4.77-5.72,7.32-9.25,8.5-7.22,2.4-17.83,3.74-24.75,0-.47-.26-2.1-2-2.25-2-1.17,0-4.9,6.09-1.5,8.25.23.14,4.26,1.73,4.5,1.75,1.54.13,2.2-1.25,3.25-1,.59.14,1.01,1.86,2.5,1.5.28-.07,1.47-1.73,2-1.75.16,0,2.59,1.51,2.75,1.5.79-.04,1.32-1.69,1.5-1.75.67-.22,1.61.96,2,1,.81.08,1.78-.94,2.25-1,1.29-.17,2.47.83,3,.75.88-.13,1.13-1.64,1.5-1.75.51-.14,1.79,1.26,3,.75.55-.23.72-1.89,1-2,.53-.22,3.86,1.36,4.75,1,.76-.31.72-2.81,1.5-3,.33-.08,2.45.86,3.5.5.62-.21.85-1.57,1.12-1.88,1.46-1.61,2.31-.87,1.75-4.25-.35-2.14-2.62-3.77-4.12-5.12ZM114.88,94.5c-.47.07-.86,2.44-2,2.75-.89.24-2.92-.38-3.25-.25-.53.2-.56,2.3-1.5,2.75-1.31.63-4.17-.97-4.75-.75-.17.06-.54,1.36-.75,1.5-1.31.86-3.08-.27-3.25-.25-.34.05-.86,1.4-1.25,1.5-.81.22-2.54-.87-3.5-.75-.14.02-1.25,1.04-2.25,1-.38-.01-1.52-.91-2-.75-.18.06-.46,1.47-2.25,1.25-.32-.04-1.53-1.04-2-1-.44.04-1.83,1.76-2.75,1.75-1.12-.01-2.11-1.72-2.25-1.75-.23-.05-1.46,1.1-2.75,1-.47-.03-5.49-2.42-5.62-2.12l11.12,18.88c4.97,3.53,25.94.91,28.38-4.12.5-1.04,2.8-15.69,3-17.75.07-.77-.15-1.5.25-2.25.04-.35-.3-.67-.62-.62Z"/>
          <path class="st3" d="M32.37.5c.25,0,.71-.09.88.12-3.71,6.27,4.51,6.25,5.25,9.25.17.7-.21,2.51,0,3,.09.2,2.78,1.24,3.5,2.5.61,1.06.54,2.85.75,3.25.41.8,1.76,1.42,2.25,2.75.74,1.98-.06,4.12.25,5.25.08.31,1.53,1.32,1.75,1.75,1.16,2.28,1.38,4.46.75,7-.55,2.19-10.14,19.7-11.62,20.62-5.35,3.34-26.27.41-28.88-5.88-.8-1.94-3.19-18.91-3.25-21.5-.04-1.82.45-3.76,1.5-5.25.69-.99,3.42-2.54,3.5-2.75.26-.68-.02-2.89.5-4.25,1.19-3.12,4.32-3.39,6.38-4.88,1.34-.97,2.55-3.02,4-3.75,1.3-.65,3.09-.43,3.25-.5.32-.14,1.69-2.93,2.75-3.75.5-.38,6.14-2.99,6.5-3ZM31.87,1.5c-2.21,1.68-.76,4.77,1,6.25.18.15,5.02,2.26,3,3-3.65,1.34-8.46-4.16-6.75-7.75-1.99.78-4.35,2.13-4.88,4.38l2.88-2.62c.18,2.02,1.57,4.87,3.25,6,1.81,1.21,8.71,2.16,6.88-1.38-.91-1.75-7.62-2.3-5.38-7.88ZM21.62,7.75c-1.39.06-3.68,2.7-3.62,4.12.25,7.11,18.04,10.78,23.25,8-7.32.95-18.64.19-22.12-7.38l.25-.75c6.01,5.45,12.09,6.01,19.75,6.5.67.04,2.63,1.07,2.88.38-.28-5.91-5.22-3.65-9.12-4.12-3.57-.44-6.7-1.97-9.12-4.62-.72-.78-.21-2.21-2.12-2.12ZM15.37,12.5c-2.18,2.09.67,5.76,2.5,7.25,3.97,3.24,14.21,5.94,19.25,5.25,1.64-.23,7.99-2.83,5.75-5-5.08,8.31-26.03,1.44-27.5-7.5ZM14.12,13.25c-11.29,8.07,1.37,14.82,9.75,16.5,5.63,1.13,20.53,2.92,20.75-5.5l-2.5,3.25c-.14-.93-1.1.14-1.75.25-6.65,1.08-21.81-2.66-25.38-8.88-1.05-1.83-1.71-3.53-.88-5.62ZM8.87,21.75c-1.92-.12-4.48,4.84-3.88,6.88.07.22,2.66,3.55,2.88,3.62,1.08.38,3.39-.78,4-.5.51.24.46,2.42,1.5,2.75,2.3.74,3.96-2.92,6,1.5,1.18.27,1.59-1.32,2.25-1.25.17.02,1.2,1.41,1.75,1.5.87.15,1.88-.76,2.75-.5.65.19.83,2.15,2.5,1.75.39-.09.89-1.41,1.75-1.25.31.06,1.22,1.71,2.25,1.5.36-.07.77-1.29,1.75-1.25.6.02,2.44,2,3,2,1.14,0,1.23-1.84,1.75-2,.67-.21,2.14,1.37,3.5,1,.28-.08,1.13-1.33,1.5-1.5.84-.39,2.1.77,2.88-1.12.86-2.1,0-5.88-1.88-7.38-7.38,7.83-28.08,3.95-34.62-3.38-.46-.52-.89-2.33-1.62-2.38ZM5.37,30c.34,4.02.69,8.15,1.38,12.12.33,1.92.94,6.79,1.75,8.25,2.77,5,22.3,7.9,27.12,4.88,2.83-1.77,7.9-14.9,10.38-18.12-1.32-1.52-2.51,1.25-3.12,1.38-.56.12-3.09-1.04-3.25-1-.09.03-.8,1.37-1.25,1.5-2.14.62-3.74-1.74-4-1.75-.2,0-1.18,1.19-1.75,1.25-1.41.16-1.95-1.31-2.5-1.25-.14.02-1.44,1.39-2.5,1.25-.8-.11-1.63-1.72-1.75-1.75-.21-.06-1.95.38-2.75.25-.11-.02-1.21-1.04-1.75-1-.09,0-1.22,1-1.5,1-1.17,0-2.33-2.44-2.5-2.5-.36-.12-3,1.2-4,1-1.22-.24-1.85-2.66-2-2.75-.76-.44-5.13,1.5-6-2.75Z"/>
          <path class="st3" d="M32.87,128.5c.58.14-.55,2.99-.38,4.12.46,2.95,4.32,2.55,5.5,4.5.88,1.46.17,2.87.5,3.75.12.3,2.86,1.45,3.5,2.5.72,1.19.51,3.01.75,3.5.37.75,1.76,1.43,2.25,2.75.63,1.71-.03,4.53.25,5.25.04.09,1.24.75,1.5,1.25,1.42,2.7,1.81,4.4,1,7.5-.55,2.12-10.27,19.78-11.62,20.62-5.14,3.21-26.9.39-29.12-5.88-.8-2.24-2.91-18.42-3-21.25-.05-1.66.37-3.85,1.25-5.25.72-1.15,3.67-2.78,3.75-3,.26-.68-.02-2.89.5-4.25,1.23-3.21,4.33-3.39,6.38-4.88,1.26-.92,2.9-3.42,4.25-4,.94-.41,2.91-.35,3.25-.5.14-.06.84-1.83,1.12-2.12,2.4-2.46,5.29-3.29,8.38-4.62ZM31.62,130c-1.38.98-.84,3.07-.12,4.38,1.14,2.06,4.65,2.36,4.62,4.62-4.24.86-8.79-3.9-6.75-8-2.13.87-4.68,2.18-5.12,4.62l2.88-2.88c.16,2.05,1.34,4.74,3,6,2.06,1.55,8.95,2.52,7.12-1.12-.64-1.27-3.8-1.6-4.75-3-.81-1.19-.64-4.65-.88-4.62ZM21.37,136c-1.35.19-3.44,2.8-3.38,4.12.37,6.99,17.74,10.65,23,8-5.72,1-17.46-.34-21-5.5-.31-.45-1.65-2.78-.38-2.62.36.04,4.7,3.43,6,4,5.26,2.31,10.6,2.07,16.12,3.12.49-6.36-4.44-3.97-8.38-4.38-2.38-.24-5.84-1.3-7.75-2.75s-2.29-4.28-4.25-4ZM15.62,140.5c-2.92,1.71.39,6.02,2.25,7.5,4.16,3.31,14.28,5.87,19.5,5,1.87-.31,7.59-2.56,5.5-5-3.18,8.35-23.65,1.26-26.38-3.88-.64-1.2-.76-2.3-.88-3.62ZM13.87,141.5c-4.21,2.18-5.38,6.8-2.38,10.62,4.65,5.92,22.68,8.11,29.38,5.62,2.72-1.01,3.54-2.66,3.75-5.5-1.64,4.21-5.82,4-9.75,3.75-6.17-.39-19.74-4.54-21.12-11.62-.18-.94.24-2.02.12-2.88ZM8.87,150c-2.85,1.16-4.18,3.86-3.88,6.88,1.47.45,2.04,3.38,3.12,3.62s3-.84,3.75-.5c.53.24.64,2.47,1.5,2.75,1.19.39,3.63-1.28,4.5-1,.34.11,1.02,2.39,1.75,2.5.66.1,1.59-1.23,1.75-1.25.72-.09,1.05,1.1,1.75,1.25.99.22,2.74-.57,3-.5.32.08,1.3,1.91,1.75,2,1.06.22,1.54-1.34,2.5-1.25.46.04,1.32,1.21,1.5,1.25,1.67.4,1.36-1.34,2.5-1.25.64.05,2.23,2.36,3.5,2,.52-.15,1.03-1.93,1.5-2,.21-.03,1.87,1.45,3,1.25.63-.11,1.31-1.29,1.75-1.5.19-.09,1.95-.06,2.25-.25,1.85-1.15.49-8.08-1.25-8.25-.56-.06-1.7,1.69-2.25,2-8.21,4.59-29.17,1.67-34-7.75ZM5.37,158.25c.24,1.27,0,2.6.12,3.88.22,2.28,2.07,15.49,2.75,16.75,2.09,3.9,17.53,6.33,21.88,5.88,1.45-.15,5.02-.87,6-1.75l9.88-17.62c-1.57-1.51-2.13.81-2.88,1.12-1.19.5-2.81-.93-3.5-.75-1.18.31.03,2.56-3.75,1-.29-.12-1.05-1.21-1.25-1.25-.74-.13-1.53,1.33-2.5,1.25-.3-.02-1.64-1.25-1.75-1.25-.48-.01-1,.9-1.5,1-2.01.39-2.62-1.64-3-1.75-.14-.04-1.8.54-2,.5-1.01-.18-1.63-.88-2.75-1-.1-.01-.8.86-2,.5-.65-.19-1.38-1.95-1.5-2-.57-.23-3.04,1.16-4.5.75-1.12-.32-1.42-2.34-1.75-2.5-1.22-.59-4.65,1.68-6-2.75Z"/>
          <path class="st5" d="M242.88,94.5c.51.07.39,1.5.38,1.88-.07,1.77-2.81,18.14-3.25,19-2.67,5.18-23.52,7.12-28.12,4.38-.63-.38-4.42-6.48-5.12-7.62-2.29-3.73-3.97-7.89-6.5-11.5.25-.45,5.68,2.37,6.88,2.12.56-.12,1.1-1.2,1.75-1,.23.07.77,1.92,2.75,1.5.42-.09,1.8-1.48,2-1.5.72-.08,2.3,1.51,3.75,1,.29-.1.6-1.15,1-1.25.61-.15,1.47.73,1.75.75,1.25.11,1.63-.89,2.25-1,1.21-.22,2.6.93,3.75.5.3-.11.61-1.15,1-1.25s2.23.55,3,.25c.41-.16.82-1.68,1-1.75.31-.11,3.69,1.45,4.75,1,.63-.26,1.05-2.92,1.25-3,.16-.07,2.09,1.13,3.5.75,1.28-.35,1.17-2.59,2.25-3.25Z"/>
          <path class="st5" d="M239.38,85.75c2.38.84,5.09,5.63,4.12,7.88-.07.16-1.32.55-1.38.62-.43.55-1.62,2.65-2,2.75-.62.16-3.18-.86-3.5-.75-.45.15-.87,2.82-1.5,3-.58.17-4.23-1.34-4.5-1.25-.52.18-.41,1.61-1,2-1.03.68-2.4-.82-2.75-.75-.13.03-1.37,1.95-1.75,2-.41.06-2.04-1.07-2.75-1-.57.06-1.36,1.39-2.5,1.25-.42-.05-1.3-1.21-2-1-.5.15-.53,1.86-1.75,1.75-.52-.04-1.88-1.68-2.75-1.5-.48.1-1.36,2.07-2.75,1.75-.25-.06-1.53-1.72-1.75-1.75-.48-.07-1.91,1.29-2.75,1.25-.33-.02-5.95-2.34-6.12-2.62-1.14-1.79.99-6.53,2.88-7.62,7.13,6.6,18.72,4.81,27.25,2,3.56-1.17,9.87-3.39,9.25-8Z"/>
          <path class="st4" d="M206.88,80.5c3.27,7.4,20.7,8.59,27.25,7,3-.73,3.28-2.96,2.88-5.62,1.08,1.2,1.13,3.07.5,4.5-3.67,8.33-30.89,7.95-32.88-3.12-4.8,8.9,8.74,10.68,14.75,10.5s17.41-1.91,19-8.5c1.55,4.62-6.92,7.08-10.25,8-5.21,1.44-12.45,2.37-17.75,1.25-6.22-1.32-11.09-6.7-5.5-12,.83,0,.97,2.47,1.38,3.12,3.58,5.86,23.24,6.95,28.75,3-4.74-.29-9.71.72-14.62.38-4.16-.29-16.38-2.2-13.5-8.5Z"/>
          <path class="st4" d="M235.5,80.25c-.36-.23-7.11,1.41-8.38,1.5-1.83.13-4.95.18-6.75,0-3.37-.33-6.34-2.06-9.62-2.62,3.15,5.28,11.68,5.06,17.12,4.62.64-.05,10.72-1.48,7.62-3.5.13.17.96-.19.75,1.38-.36,2.65-6.71,2.77-8.62,2.88-3.78.2-11.51.12-14.75-1.75-2.22-1.28-4.76-5.28-2-7.25,2.27-1.62,2.88.84,5,1.75,2.62,1.12,7.43,1.48,10.25,1.25,5.26-.43,5.39-3.31,9.38,1.75Z"/>
          <path class="st4" d="M219.88,66.75c.73,1.29.89,3.31,2.25,4.25,2.08,1.43,3.86-.02,5.5,1,.54.33,1.68,2.05,1.38,2.62-.37.69-5.21,1-6.12.88-2.46-.33-8.87-4.75-5.5-7.25.46,4.75,6.04,7.47,10.12,5.62-.17-2.14-2.83-1.27-3.88-1.62-2.24-.75-5.22-2.77-3.75-5.5Z"/>
          <path class="st4" d="M214.38,70.75l-.38,1.38c.81,2.78,2.77,3.72,4.88,5.38-3.05-.71-7.64-3.42-4.5-6.75Z"/>
          <path class="st5" d="M243.12,222.5c.88.14-.81,6.3-.88,6.88-.54,4.6.02,13.38-4.12,16.12-4.82,3.19-20.87,5.36-25.75,2.25-.93-.59-11.56-17.53-11.62-18.62-.01-.22-.07-.48.12-.62.22-.13,2.12,1.46,2.25,1.5.17.06,3.08.74,3.25.75,1.1.05,2.31-1.07,2.75-1s1.02,1.86,3,1.5c.55-.1,1.67-1.45,2-1.5.85-.12,1.91,1.17,3,1,.74-.12,1.32-1.47,1.5-1.5.15-.03,1.31.91,2.75.75.25-.03.94-.75,1-.75.98-.06,3.22.82,3.5.75.41-.1,1.04-1.44,1.25-1.5.27-.07,2.27.62,3,.25.64-.32.73-1.65,1.25-1.75.3-.06,3.22,1.48,4.5,1,.77-.29,1.03-2.64,1.25-2.75.24-.11,2.6.73,3.5.5,1.41-.35,1.08-2.78,2.5-3.25Z"/>
          <path class="st5" d="M239.62,214c2.23,1.08,4.69,4.94,3.88,7.38-.17.52-1.37.77-1.75,1.25-.35.45-.99,2.22-1.38,2.38-.81.32-3.27-.8-3.5-.75-.69.16-1.08,2.81-1.5,3-.71.32-4.49-1.27-5-1-.19.1-.3,1.77-1,2-1.13.37-2.03-1.08-2.75-.75-.13.06-.51,1.36-1,1.5-1.04.31-2.27-.9-3.25-.75-.4.06-1.11.97-1.25,1-1.52.37-2.38-1.08-2.75-1-.29.06-.93,1.65-1.25,1.75-1.03.33-2.4-1.43-3.25-1.25-.48.1-1.36,2.06-2.75,1.75-.26-.06-1.51-1.7-1.75-1.75-.89-.17-1.97,1.28-3,1.25-.82-.02-5.95-2.01-6.38-2.88-.95-1.95.71-6.48,2.88-7.38,6.54,6.74,19.14,4.68,27.25,2,3.95-1.31,8.85-3.07,9.5-7.75Z"/>
          <path class="st4" d="M206.62,208.5c3.25,6.61,14.94,7.68,21.5,7.5,4.75-.13,10.64-.18,8.5-6.75,1.64,2.29,1.58,4.18-.12,6.38-5.41,6.97-29.38,6.2-32.38-4.12-1.94,2.45-.54,5.77,1.75,7.5,5.87,4.43,23.28,2.85,29.25-1.25,1.57-1.08,3.01-2.44,3-4.5,2,4.72-6.89,7.09-10.25,8-6.11,1.66-16.32,3.01-22-.25-4.03-2.31-5.09-7.5-1.25-10.5.52,0,1,2.54,1.38,3.12,3.86,5.93,23.42,7.12,29,2.75-7.3.44-15.23,1.47-22.38-.62-2.92-.85-8.32-3.51-6-7.25Z"/>
          <path class="st4" d="M212.12,202.75c.25,0,3.2,2.36,4.25,2.75,5.25,1.94,10.95.77,16.25-.25,1.58,1.89,5.64,4.29,2,6.25-4.1,2.21-22.62,1.94-24.88-3.88-.75-1.93.18-4.92,2.38-4.88ZM210.62,207c1.81,6.27,20.12,5.54,23.75,3.5,1.09-.61,2.09-2.31,0-2.25-1.48.04-5,1.35-7,1.5-6.03.46-11.19-.53-16.75-2.75Z"/>
          <path class="st4" d="M219.88,194.75c.46,1.27,1.09,3.44,2.25,4.25,2.09,1.45,5.4-.44,6.62,2.38,1.01,2.31-4.51,2.37-6.12,2.12-2.54-.39-9.14-5.29-5-7.25-1.71,4.51,9.01,8.09,9.88,5.62.59-1.69-3.75-1.5-4.12-1.62-2.21-.75-5.03-3.1-3.5-5.5Z"/>
          <path class="st4" d="M214.38,198.5c-1.25,3.49,1.83,4.82,3.75,7-3.18-1.28-6.92-3.41-3.75-7Z"/>
          <path class="st5" d="M137.12,157.75c1.65.41,2.5,3.35,4,3.75.37.1,2.72-.64,3-.5s.44,1.44.62,1.62c2.13,2.12,4.86-.08,5.38.12.15.06.56,2.07,2,2.25,1.3.16,2.12-1,2.25-1,.1,0,1.23,1.18,1.5,1.25,1.17.29,2.82-.54,3-.5.51.1,1.03,2.36,3,2,.48-.09,1.4-1.25,1.5-1.25s1.02,1.17,1.5,1.25c1.27.22,2.03-1.09,2.75-1,.13.02,1.75,1.41,2.25,1.5,2.25.39,2.36-1.37,2.75-1.5.42-.14,2.03.98,3.25.75.83-.16,1.94-2.01,3.38-1.12l-10.12,18.12c-.68.44-4.97,1.2-6,1.25-4.7.23-20.12-2.51-22.12-6.38-.51-.98-1.92-7.45-2.25-9-.29-1.33-2.08-11.26-1.62-11.62Z"/>
          <path class="st5" d="M141.38,150c2.38,3.28,4.69,5.46,8.5,7,7.06,2.86,22.65,5.6,27.75-1.5,2.38,1.27,3.33,5.58,2.38,7.88-.76,1.82-1.77.76-2.62,1.12-.56.24-1.78,1.22-2.25,1.25-.78.05-2.49-1.17-3-1-.1.03-.85,1.63-1.25,1.75-1.25.36-3.29-1.98-3.5-2-.69-.07-1.2,1.4-1.5,1.5-1.33.44-2.09-1.46-2.5-1.5-.55-.06-1.39,1.56-2.25,1.5-.94-.07-1.5-2.14-2-2.25-.39-.09-2.06.99-3,.75-.35-.09-1.14-1.51-1.75-1.5-.4,0-1.33,1.21-1.5,1.25-1.92.47-1.89-2.3-2.75-2.5-1.06-.24-3.06,2.28-4.88.12-.3-.36-.15-1.66-.88-1.88-.16-.05-2.36.69-3.25.5-.74-.16-3.14-3.69-4.38-4.12.4-2.9,1.99-5.13,4.62-6.38Z"/>
          <path class="st4" d="M153.88,136c1.89-.27,2.13,2.07,3.75,3.5,2.14,1.9,5.7,2.91,8.5,3.25,2.57.32,7.03-1.14,8.12,1.88.22.61.41,1.68,0,2.25-.24.33-7.03-.98-8.12-.62-5.4-.84-10.28-3.03-14.5-6.5l-.25.75c3.48,7.71,14.74,8.36,22.12,7.62-4.85,2.77-22.48-1.19-23-7.5-.15-1.76,1.69-4.39,3.38-4.62Z"/>
          <path class="st4" d="M146.38,141.5c.08,1.05-.34,2.3-.12,3.38,1.54,7.68,23.77,14.18,29.38,9.62.67-.55,1.06-1.15,1.25-2,.6-.08.17,1.45.12,1.62-2.33,8.38-25.63,3.49-30.88-.38-4.75-3.5-5.51-9.48.25-12.25ZM145.38,142.25c-6.02,6.68,3.34,11.78,9,13.5,5.31,1.62,13.82,3.19,18.88.88-6.97.9-14.79-.35-20.88-3.88-3.02-1.75-6.52-5.02-7.12-8.62-.05-.28.86-1.7.12-1.88Z"/>
          <path class="st4" d="M148.12,140.5c.21,1.57.05,2.43.88,3.88,2.58,4.52,23.78,12.38,26.12,3.62,2.66,2-3.06,4.67-4.75,5-5.05.99-13.82-1.39-18.25-4-2.69-1.58-7.15-5.49-4-8.5Z"/>
          <path class="st4" d="M164.12,130c.43,1.38-.17,2.66.62,4.12.9,1.66,7.6,3.26,4.62,5.62-3.45,2.74-10.44-3.18-9.5-7.25l-2.12,1.38c.77-1.62,2.88-2.09,4.38-2.88-1.04,1.96-.83,3.57.38,5.38s6.75,4.33,6.5,2c-.09-.78-8.58-4.77-4.88-8.38Z"/>
          <path class="st5" d="M137.12,29.25c1.36.58,2.24,2.97,3.25,3.5,1.36.71,3.58-.09,3.75,0,.49.28.87,2.24,1.75,2.5,1.46.43,3.88-.89,4.25-.75.14.05.94,2.08,2,2.25,1.19.19,1.77-.97,2-1,.85-.13,1.28,1.09,2,1.25,1.11.25,2.61-.52,2.75-.5.22.03,1.77,1.96,2,2,.71.13,2.36-1.26,2.5-1.25s1.04,1.17,1.5,1.25c1.27.22,2.03-1.09,2.75-1,.17.02,1.68,1.38,2,1.5,2.35.88,2.88-1.4,3.25-1.5.28-.08,2.02.9,3,.75.9-.13,2.24-2.14,3.62-1.38-2.37,2.91-8.09,17.35-10.62,18.62-.82.41-4.92.93-6,1-4.15.28-14.59-1.91-18.25-3.75-.96-.48-3.13-1.72-3.62-2.62-.62-1.14-2.16-8.5-2.5-10.25-.23-1.21-1.8-10.3-1.38-10.62Z"/>
          <path class="st5" d="M141.62,21.75c2.68,4.42,6.67,6.54,11.5,8,6.95,2.1,19.97,4.31,24.75-2.5,2.72.86,3.54,7.72,1.5,8.75-.25.13-1.92.12-2.25.25-.25.1-1.24,1.2-1.75,1.25-.76.08-2.51-1.15-3-1-.38.12-.79,1.95-1.75,2-.63.03-3.06-2.31-3.5-2.25-.35.05-.92,1.88-2.25,1.5-.38-.11-.85-1.46-1.5-1.5-.5-.03-1.97,1.52-2.25,1.5-.38-.03-1.63-2.18-2-2.25-.3-.06-1.84.93-2.75.75-.58-.11-1.4-1.47-1.5-1.5-1.02-.35-1.57,1.16-2,1.25-1.62.36-2.12-2.37-2.5-2.5-.77-.27-2.79,1.33-4,1-.85-.24-1.33-2.33-1.75-2.5-.72-.3-2.73.56-3.75.25-.57-.18-2.58-3.58-3.88-3.88-.18-2.88,2.05-5.47,4.62-6.62Z"/>
          <path class="st4" d="M153.88,7.75c2.07-.4,2.14,1.73,3.75,3.25,1.82,1.71,5.82,3.2,8.25,3.5,3.55.43,9.41-1.74,8.62,4.12-.53.8-1.91-.33-2.62-.38-5.64-.36-9.84-.48-15-3.25-.86-.46-5.13-4.17-5.38-3.12,2.99,8.09,14.9,8.9,22.25,8-4.49,3.13-21.78-1.42-23-6.75-.45-1.98,1.2-5,3.12-5.38Z"/>
          <path class="st4" d="M146.38,13.25c.57.05-.23,1.71-.12,2.38,1.25,7.68,16.07,11.98,22.62,12.38,3.13.19,7.23-.37,8.25-3.75.6-.09.17,1.5.12,1.62-2.39,7.6-21.07,4.03-26.62,1.88-6.63-2.56-12.34-9.38-4.25-14.5ZM145.38,14.25c-5.59,6.9,4.33,11.87,10,13.5,5.01,1.44,12.82,2.99,17.62.88-3.05-.15-6.05.32-9.12-.12-7.23-1.04-17.97-5.93-18.5-14.25Z"/>
          <path class="st4" d="M148.38,12c-.17,2.75.91,4.55,3,6.25,4.42,3.6,21.39,9.53,24,1.5,2.94,2.19-4.03,5.04-6,5.25-4.86.52-15.2-2.34-19-5.5-2.11-1.75-4.67-5.18-2-7.5Z"/>
          <path class="st4" d="M164.12,2c.52,1.22.12,2.89.88,4.12.84,1.36,7.89,3.23,4.62,5.38-4.05,2.67-10-2.92-9.75-7.25l-1.88,1.12,4.12-2.62c-1.82,2.84,1.17,7.2,4,8,.76.21,3.5.66,2.88-.88-2.67-1.94-6.63-3.73-4.88-7.88Z"/>
          <path class="st5" d="M74.5,233.25c2.22-.73,0-1.77-.25-2.38-.07-.17.04-1.32,0-1.38,1.83-.23,3.13,1.5,4.88,1.25.37-.05,1.41-1,1.5-1,.24.01,1.38,1.67,2.25,1.75,1.47.13,2.79-1.73,3.25-1.75.15,0,2.21,1.32,2.75,1.25.67-.09.98-1.16,1.25-1.25.15-.05,2.51.31,3.25.25.13-.01.67-.78,2-.75.31,0,.95,1.02,2.25.5.49-.2,1.15-1.48,1.25-1.5.14-.03,1.75.87,2.75.5.71-.27.82-1.93,1-2,.36-.15,3.76,2.75,5.63.12.22-.3.1-1.69.62-1.88.17-.06,2.38.88,3.5.5.42-.14,1.92-3.73,2.38-2.38l-3.5,20.5c-4.53,5.01-22.58,7.42-27.88,4.38-.92-.53-7.81-12.76-8.88-14.75Z"/>
          <path class="st5" d="M110.88,213.5c2.32,1.36,5.04,5.12,4.12,7.88-.18.53-1.34.78-1.5,1-3.35,4.6-2.48,1.21-5.12,1.88-.85.21-.8,2.78-1.5,3-.76.24-4.26-1.43-4.75-1.25-.41.15-.73,2.11-1.25,2.25-.43.12-1.85-.84-2.25-.75s-.83,1.36-1.25,1.5c-.95.32-2.17-.75-3.5-.5-.32.06-1.21.96-1.5,1-1.31.17-2.31-1.29-2.5-1.25-.36.07-.62,1.88-1.25,2s-1.87-1.43-3-1.25-2.36,3.48-4.25,0c-3.51,1.66-6.68-.01-9.88-1.88-.19-1.87.19-4.58,1.5-6,2.16-2.34,2.91.36,5.12,1.38,6.53,3,18.14,1.18,24.75-1.25,3.06-1.13,9.47-3.54,8-7.75Z"/>
          <path class="st1" d="M83.37,202.75c1.06-.14,3.13,1.95,4.5,2.5,7.2,2.88,9.79-.14,15.5-.25,2.53-.05,1.81,1.38,2.62,2.12,4.12,3.77,5.13,5.54.75,10.25,2.2-.74,3.02-2.49,3.38-4.62,1.06,3.85-2.29,5.47-5.25,6.75-6.7,2.9-21.41,5.53-27.75,1.25-3.48-2.35-4.4-7.33-1-10.25.85-.07,1.17,2.26,1.62,2.88,3.85,5.19,15.64,5.94,21.62,5.38,1.11-.1,6.49-1.13,6.88-2.12.44-1.14-2.7.11-2.88.12-4.32.29-27.67.73-25.62-7.38.6-2.36,1.58.81,2,1.25,4.44,4.72,20.09,6.17,26.12,4.88,2.68-.57,3.85-3.87,2.25-6-.74,1.9-3.36,2.53-5.25,2.75-4.95.57-20.97.92-21.88-5.88-.18-1.35.98-3.45,2.38-3.62ZM82.37,207c2.1,6.08,20.09,5.53,23.75,3.25,5.39-3.36-4.74-.82-5.5-.75-6.72.62-11.98-.09-18.25-2.5ZM75.87,211.25c-1.17,1.23-1.16,3.37-.62,4.88,2.5,7,20.28,5.88,26,3.75.69-.98-3.84.11-4.12.12-7.19.33-18.61-.81-21.25-8.75Z"/>
          <path class="st1" d="M91.62,194.5c.4,1.84,1.53,4.54,3.5,5,1.53.35,4.41-.64,5.38,1.62s-4,2.58-5.62,2.38c-2.76-.35-9.47-4.66-5.75-7.5-.05,4.96,6.38,7.66,10.12,5.62.19-1.02-3.8-1.9-4.38-1.62-1.99-.48-5.07-3.49-3.25-5.5Z"/>
          <path class="st1" d="M86.12,198.25c.35.56-.47,1.26-.38,2.12,0,.07.4,1.03.5,1.25.61,1.38,2.66,2.55,3.62,3.62-3.33-.96-6.9-3.63-3.75-7Z"/>
          <path class="st5" d="M74.25,229.5c.04.06-.07,1.21,0,1.38.26.61,2.47,1.64.25,2.38-.83-1.54-1.69-3.07-2.5-4.62.35-.62,2.18.78,2.25.88Z"/>
          <path class="st5" d="M114.88,94.5c.33-.05.66.28.62.62-.4.75-.18,1.48-.25,2.25-.2,2.06-2.5,16.71-3,17.75-2.43,5.04-23.4,7.66-28.38,4.12l-11.12-18.88c.13-.3,5.16,2.09,5.62,2.12,1.29.1,2.52-1.05,2.75-1,.14.03,1.13,1.74,2.25,1.75.92,0,2.31-1.71,2.75-1.75.47-.04,1.68.96,2,1,1.79.22,2.07-1.19,2.25-1.25.48-.16,1.62.74,2,.75,1,.04,2.11-.98,2.25-1,.96-.12,2.69.97,3.5.75.39-.1.91-1.45,1.25-1.5.17-.02,1.94,1.11,3.25.25.21-.14.58-1.44.75-1.5.58-.22,3.44,1.38,4.75.75.94-.45.97-2.55,1.5-2.75.33-.13,2.36.49,3.25.25,1.14-.31,1.53-2.68,2-2.75Z"/>
          <path class="st5" d="M111.38,85.25c1.5,1.35,3.77,2.99,4.12,5.12.56,3.38-.29,2.64-1.75,4.25-.28.3-.5,1.66-1.12,1.88-1.05.36-3.17-.58-3.5-.5-.78.19-.74,2.69-1.5,3-.89.36-4.22-1.22-4.75-1-.28.11-.45,1.77-1,2-1.21.51-2.49-.89-3-.75-.37.11-.62,1.62-1.5,1.75-.53.08-1.71-.92-3-.75-.47.06-1.44,1.08-2.25,1-.39-.04-1.33-1.22-2-1-.18.06-.71,1.71-1.5,1.75-.16,0-2.59-1.51-2.75-1.5-.53.02-1.72,1.68-2,1.75-1.49.36-1.91-1.36-2.5-1.5-1.05-.25-1.71,1.13-3.25,1-.24-.02-4.27-1.61-4.5-1.75-3.4-2.16.33-8.25,1.5-8.25.15,0,1.78,1.74,2.25,2,6.92,3.74,17.53,2.4,24.75,0,3.53-1.18,10.64-3.73,9.25-8.5Z"/>
          <path class="st1" d="M84.62,74.75c.26.02,2.59,2.11,3.5,2.5,2.62,1.14,7.17,1.5,10,1.25,1.66-.14,5.63-1.74,7-1.25.5.18.81,1.56.88,1.62,4.45,4.04,5.55,5,1.25,10.5,1.81-.69,3.21-2.66,3.12-4.62,1.86,3.73-2.72,5.82-5.5,7-6.37,2.69-17.08,4.34-23.75,2.5-5.6-1.55-9.32-7.11-4.25-11.75l.62.12c.03.74.37,1.9.75,2.5,4.21,6.59,22.38,7.39,28.75,3.5.04-.81-6.1.35-6.62.38-4.21.16-23.28-.1-22.12-7.38.47-2.94,1.73.67,2,1,4.08,4.93,20.02,6.25,25.88,4.88,2.91-.68,4.15-3.8,2.25-6.25-.34,2-2.77,2.73-4.5,3-5.07.79-20.53,1.19-22.12-5.38-.42-1.74,1.08-4.25,2.88-4.12ZM82.87,79c2.94,5.74,13.77,5.29,19.25,4.5.57-.08,8.18-2.01,5.25-3.25-.39-.16-6.92,1.41-8.25,1.5-5.99.41-10.72-.69-16.25-2.75ZM76.62,83.25c-.15,0-1.08,1.61-1.12,1.88-1.71,10.06,20.11,9.31,25.75,7,.53-1.04-5.45.12-5.88.12-6.48.04-16.72-1.86-18.75-9Z"/>
          <path class="st5" d="M92.12,66.5c.49.07.39,1.87.62,2.38,2.13,4.48,6.83,1.64,8,4.25s-4.29,2.61-5.88,2.38c-2.68-.4-8.85-4.86-5.25-7.5.1,5.08,5.85,7.47,10.12,5.88-1.05-2.42-3.81-1.25-5.88-2.38-1.26-.69-3.48-3.8-1.75-5Z"/>
          <path class="st5" d="M86.87,70.25l-.62,1.62c.39.4.3,1.27.5,1.75.66,1.59,3.02,2.71,4.12,3.88-3.37-.83-7.49-3.83-4-7.25Z"/>
          <path class="st5" d="M5.37,30c.87,4.25,5.24,2.31,6,2.75.15.09.78,2.51,2,2.75,1,.2,3.64-1.12,4-1,.17.06,1.33,2.5,2.5,2.5.28,0,1.41-.99,1.5-1,.54-.04,1.64.98,1.75,1,.8.13,2.54-.31,2.75-.25.12.03.95,1.64,1.75,1.75,1.06.14,2.36-1.23,2.5-1.25.55-.06,1.09,1.41,2.5,1.25.57-.06,1.55-1.26,1.75-1.25.26,0,1.86,2.37,4,1.75.45-.13,1.16-1.47,1.25-1.5.16-.04,2.69,1.12,3.25,1,.61-.13,1.81-2.9,3.12-1.38-2.47,3.23-7.55,16.35-10.38,18.12-4.83,3.02-24.36.13-27.12-4.88-.81-1.46-1.42-6.33-1.75-8.25-.68-3.97-1.04-8.11-1.38-12.12Z"/>
          <path class="st5" d="M8.87,21.75c.74.05,1.16,1.86,1.62,2.38,6.55,7.32,27.24,11.2,34.62,3.38,1.88,1.5,2.73,5.28,1.88,7.38-.77,1.9-2.03.73-2.88,1.12-.37.17-1.22,1.42-1.5,1.5-1.36.37-2.83-1.21-3.5-1-.52.16-.61,1.99-1.75,2-.56,0-2.4-1.98-3-2-.98-.04-1.39,1.18-1.75,1.25-1.03.21-1.94-1.44-2.25-1.5-.86-.16-1.36,1.16-1.75,1.25-1.67.4-1.85-1.56-2.5-1.75-.87-.26-1.88.65-2.75.5-.55-.09-1.58-1.48-1.75-1.5-.66-.07-1.07,1.52-2.25,1.25-2.04-4.42-3.7-.76-6-1.5-1.04-.33-.99-2.51-1.5-2.75-.61-.28-2.92.88-4,.5-.22-.08-2.81-3.4-2.88-3.62-.6-2.04,1.96-7,3.88-6.88Z"/>
          <path class="st1" d="M21.62,7.75c1.92-.09,1.41,1.34,2.12,2.12,2.43,2.66,5.55,4.19,9.12,4.62,3.91.48,8.85-1.78,9.12,4.12-.25.69-2.2-.33-2.88-.38-7.66-.49-13.74-1.05-19.75-6.5l-.25.75c3.49,7.57,14.81,8.32,22.12,7.38-5.21,2.78-23-.89-23.25-8-.05-1.43,2.24-4.06,3.62-4.12Z"/>
          <path class="st1" d="M14.12,13.25c-.83,2.09-.18,3.79.88,5.62,3.57,6.21,18.72,9.96,25.38,8.88.65-.11,1.61-1.18,1.75-.25l2.5-3.25c-.22,8.42-15.12,6.63-20.75,5.5-8.38-1.68-21.04-8.43-9.75-16.5ZM12.87,14.25c-4.49,4.41-.61,8.87,3.75,11.25s14.53,4.69,19.5,4.25c.77-.07,2.06-.17,2.62-.88-2.14-.45-4.47.11-6.62-.12-5.33-.59-15.12-4.45-17.88-9.38-1.06-1.89-1.35-2.9-1.38-5.12Z"/>
          <path class="st5" d="M15.37,12.5c1.47,8.94,22.42,15.81,27.5,7.5,2.24,2.17-4.11,4.77-5.75,5-5.04.69-15.28-2.01-19.25-5.25-1.83-1.49-4.68-5.16-2.5-7.25Z"/>
          <path class="st1" d="M31.87,1.5c-2.24,5.57,4.47,6.13,5.38,7.88,1.84,3.54-5.06,2.59-6.88,1.38-1.68-1.13-3.07-3.98-3.25-6l-2.88,2.62c.52-2.24,2.88-3.6,4.88-4.38-1.71,3.59,3.1,9.09,6.75,7.75,2.02-.74-2.82-2.85-3-3-1.76-1.48-3.21-4.57-1-6.25Z"/>
          <path class="st5" d="M5.37,158.25c1.35,4.43,4.78,2.16,6,2.75.33.16.63,2.18,1.75,2.5,1.46.41,3.93-.98,4.5-.75.12.05.85,1.81,1.5,2,1.2.36,1.9-.51,2-.5,1.12.12,1.74.82,2.75,1,.2.04,1.86-.54,2-.5.38.11.99,2.14,3,1.75.5-.1,1.02-1.01,1.5-1,.11,0,1.45,1.23,1.75,1.25.97.08,1.76-1.38,2.5-1.25.2.04.96,1.13,1.25,1.25,3.78,1.56,2.57-.69,3.75-1,.69-.18,2.31,1.25,3.5.75.75-.31,1.3-2.64,2.88-1.12l-9.88,17.62c-.98.88-4.55,1.6-6,1.75-4.34.45-19.78-1.97-21.88-5.88-.68-1.26-2.53-14.47-2.75-16.75-.12-1.27.12-2.6-.12-3.88Z"/>
          <path class="st5" d="M8.87,150c4.83,9.42,25.79,12.34,34,7.75.55-.31,1.69-2.06,2.25-2,1.74.17,3.1,7.1,1.25,8.25-.3.19-2.06.16-2.25.25-.44.21-1.12,1.39-1.75,1.5-1.13.2-2.79-1.28-3-1.25-.47.07-.98,1.85-1.5,2-1.27.36-2.86-1.95-3.5-2-1.14-.09-.83,1.65-2.5,1.25-.18-.04-1.04-1.21-1.5-1.25-.96-.09-1.44,1.47-2.5,1.25-.45-.09-1.43-1.92-1.75-2-.26-.07-2.01.72-3,.5-.7-.15-1.03-1.34-1.75-1.25-.16.02-1.09,1.35-1.75,1.25-.73-.11-1.41-2.39-1.75-2.5-.87-.28-3.31,1.39-4.5,1-.86-.28-.97-2.51-1.5-2.75-.75-.34-2.68.75-3.75.5s-1.65-3.17-3.12-3.62c-.3-3.02,1.02-5.71,3.88-6.88Z"/>
          <path class="st1" d="M21.37,136c1.96-.28,2.41,2.6,4.25,4s5.37,2.51,7.75,2.75c3.93.4,8.87-1.99,8.38,4.38-5.52-1.05-10.86-.82-16.12-3.12-1.3-.57-5.64-3.96-6-4-1.28-.15.07,2.18.38,2.62,3.54,5.16,15.28,6.5,21,5.5-5.26,2.65-22.63-1.01-23-8-.07-1.33,2.02-3.93,3.38-4.12Z"/>
          <path class="st1" d="M13.87,141.5c.11.85-.31,1.93-.12,2.88,1.39,7.09,14.96,11.24,21.12,11.62,3.93.25,8.11.46,9.75-3.75-.21,2.84-1.03,4.49-3.75,5.5-6.69,2.49-24.72.3-29.38-5.62-3-3.82-1.84-8.45,2.38-10.62ZM12.87,142.5c-3.52,2.91-2.08,6.9,1,9.5,3.92,3.32,16.19,6.18,21.25,6,.47-.02,6.3-1.06,3.88-1.38-1.88-.25-5.43.52-8.12.12-5.88-.86-15.98-5.5-17.88-11.62-.18-.59.16-2-.12-2.62Z"/>
          <path class="st5" d="M15.62,140.5c.12,1.33.24,2.42.88,3.62,2.73,5.13,23.19,12.22,26.38,3.88,2.09,2.44-3.63,4.69-5.5,5-5.22.87-15.34-1.69-19.5-5-1.86-1.48-5.17-5.79-2.25-7.5Z"/>
          <path class="st1" d="M31.62,130c.23-.02.07,3.43.88,4.62.95,1.4,4.11,1.73,4.75,3,1.83,3.65-5.07,2.68-7.12,1.12-1.66-1.26-2.84-3.95-3-6l-2.88,2.88c.45-2.45,3-3.75,5.12-4.62-2.04,4.1,2.51,8.86,6.75,8,.03-2.26-3.48-2.56-4.62-4.62-.72-1.3-1.26-3.39.12-4.38Z"/>
          <path class="st3" d="M235.5,80.25c3.09,2.02-6.98,3.45-7.62,3.5-5.44.44-13.98.66-17.12-4.62,3.28.57,6.26,2.29,9.62,2.62,1.8.18,4.92.13,6.75,0,1.26-.09,8.02-1.73,8.38-1.5Z"/>
          <path class="st3" d="M210.62,207c5.56,2.22,10.72,3.21,16.75,2.75,2-.15,5.52-1.46,7-1.5,2.09-.06,1.09,1.64,0,2.25-3.63,2.04-21.94,2.77-23.75-3.5Z"/>
          <path class="st3" d="M145.38,142.25c.73.18-.17,1.59-.12,1.88.61,3.6,4.11,6.88,7.12,8.62,6.08,3.52,13.91,4.77,20.88,3.88-5.05,2.32-13.57.74-18.88-.88-5.66-1.72-15.02-6.82-9-13.5Z"/>
          <path class="st3" d="M145.38,14.25c.53,8.32,11.27,13.21,18.5,14.25,3.07.44,6.08-.02,9.12.12-4.81,2.12-12.61.57-17.62-.88-5.67-1.63-15.59-6.6-10-13.5Z"/>
          <path class="st3" d="M75.87,211.25c2.64,7.94,14.06,9.08,21.25,8.75.29-.01,4.82-1.1,4.12-.12-5.72,2.13-23.5,3.25-26-3.75-.54-1.5-.55-3.64.62-4.88Z"/>
          <path class="st3" d="M82.37,207c6.27,2.41,11.53,3.12,18.25,2.5.76-.07,10.89-2.61,5.5.75-3.66,2.28-21.65,2.83-23.75-3.25Z"/>
          <path class="st3" d="M76.62,83.25c2.03,7.14,12.27,9.04,18.75,9,.43,0,6.41-1.17,5.88-.12-5.64,2.31-27.46,3.06-25.75-7,.05-.27.97-1.88,1.12-1.88Z"/>
          <path class="st3" d="M82.87,79c5.53,2.06,10.26,3.16,16.25,2.75,1.33-.09,7.86-1.66,8.25-1.5,2.93,1.24-4.68,3.17-5.25,3.25-5.48.79-16.31,1.24-19.25-4.5Z"/>
          <path class="st3" d="M12.87,14.25c.02,2.22.31,3.23,1.38,5.12,2.76,4.93,12.54,8.78,17.88,9.38,2.15.24,4.49-.32,6.62.12-.56.71-1.85.81-2.62.88-4.97.44-15.08-1.83-19.5-4.25s-8.24-6.84-3.75-11.25Z"/>
          <path class="st3" d="M12.87,142.5c.28.62-.06,2.04.12,2.62,1.9,6.12,12,10.77,17.88,11.62,2.7.39,6.25-.37,8.12-.12,2.43.32-3.4,1.36-3.88,1.38-5.06.18-17.33-2.68-21.25-6-3.08-2.6-4.52-6.59-1-9.5Z"/>
        </g>
      </g>
    </pattern>
  </defs>
  <rect class="st0" x=".5" y=".5" width="1919" height="1079"/>
  <path d="M1919,1v1078H1V1h1918M1920,0H0v1080h1920V0h0Z"/>
</svg>